<svg width="87" height="87" viewBox="0 0 87 87" fill="none" xmlns="http://www.w3.org/2000/svg">
<path d="M64.5801 18.0128H20.6507C19.9307 18.0128 19.2402 18.2988 18.731 18.8079C18.2219 19.3171 17.9359 20.0076 17.9359 20.7276V64.6571C17.9359 65.0136 18.0061 65.3666 18.1426 65.6959C18.279 66.0253 18.479 66.3246 18.731 66.5767C18.9831 66.8288 19.2824 67.0287 19.6118 67.1651C19.9411 67.3016 20.2942 67.3718 20.6507 67.3718H44.2936V48.2452H37.8769V40.8413H44.2936V35.2885C44.1607 33.9848 44.3146 32.6678 44.7445 31.4299C45.1745 30.192 45.87 29.0632 46.7824 28.1226C47.6948 27.1819 48.802 26.4523 50.0262 25.9849C51.2505 25.5174 52.5621 25.3235 53.8692 25.4167C55.7901 25.4048 57.7101 25.5037 59.6196 25.7128V32.3763H55.6955C52.5859 32.3763 51.9936 33.857 51.9936 36.0042V40.7673H59.3975L58.435 48.1712H51.9936V67.3718H64.5801C64.9367 67.3718 65.2897 67.3016 65.619 67.1651C65.9484 67.0287 66.2477 66.8288 66.4998 66.5767C66.7519 66.3246 66.9518 66.0253 67.0882 65.6959C67.2247 65.3666 67.2949 65.0136 67.2949 64.6571V20.7276C67.2949 20.3711 67.2247 20.018 67.0882 19.6887C66.9518 19.3593 66.7519 19.06 66.4998 18.8079C66.2477 18.5559 65.9484 18.3559 65.619 18.2195C65.2897 18.083 64.9367 18.0128 64.5801 18.0128Z" fill="white"/>
</svg>
