<svg width="48" height="48" viewBox="0 0 48 48" fill="none" xmlns="http://www.w3.org/2000/svg">
<path d="M38.24 8H9.76C9.29322 8 8.84556 8.18543 8.51549 8.51549C8.18543 8.84556 8 9.29322 8 9.76V38.24C8 38.4711 8.04552 38.7 8.13397 38.9135C8.22242 39.1271 8.35206 39.3211 8.51549 39.4845C8.67892 39.6479 8.87294 39.7776 9.08648 39.866C9.30001 39.9545 9.52887 40 9.76 40H25.088V27.6H20.928V22.8H25.088V19.2C25.0018 18.3548 25.1016 17.501 25.3803 16.6985C25.6591 15.8959 26.11 15.1641 26.7015 14.5543C27.2931 13.9444 28.0108 13.4714 28.8045 13.1684C29.5982 12.8653 30.4486 12.7396 31.296 12.8C32.5413 12.7923 33.7861 12.8564 35.024 12.992V17.312H32.48C30.464 17.312 30.08 18.272 30.08 19.664V22.752H34.88L34.256 27.552H30.08V40H38.24C38.4711 40 38.7 39.9545 38.9135 39.866C39.1271 39.7776 39.3211 39.6479 39.4845 39.4845C39.6479 39.3211 39.7776 39.1271 39.866 38.9135C39.9545 38.7 40 38.4711 40 38.24V9.76C40 9.52887 39.9545 9.30001 39.866 9.08648C39.7776 8.87294 39.6479 8.67892 39.4845 8.51549C39.3211 8.35206 39.1271 8.22242 38.9135 8.13397C38.7 8.04552 38.4711 8 38.24 8Z" fill="white" fill-opacity="0.8"/>
</svg>
