<svg width="48" height="48" viewBox="0 0 48 48" fill="none" xmlns="http://www.w3.org/2000/svg">
<rect x="0.5" y="0.5" width="47" height="47" stroke="#D10363"/>
<mask id="mask0_115_7" style="mask-type:luminance" maskUnits="userSpaceOnUse" x="8" y="8" width="32" height="32">
<path d="M40 8H8V40H40V8Z" fill="white"/>
</mask>
<g mask="url(#mask0_115_7)">
<path d="M24 10.8812C28.275 10.8812 28.7813 10.9 30.4625 10.975C32.025 11.0437 32.8687 11.3063 33.4313 11.525C34.175 11.8125 34.7125 12.1625 35.2687 12.7187C35.8313 13.2813 36.175 13.8125 36.4625 14.5563C36.6813 15.1187 36.9437 15.9687 37.0125 17.525C37.0875 19.2125 37.1063 19.7187 37.1063 23.9875C37.1063 28.2625 37.0875 28.7687 37.0125 30.45C36.9437 32.0125 36.6813 32.8563 36.4625 33.4187C36.175 34.1625 35.825 34.7 35.2687 35.2563C34.7063 35.8187 34.175 36.1625 33.4313 36.45C32.8687 36.6687 32.0187 36.9313 30.4625 37C28.775 37.075 28.2687 37.0937 24 37.0937C19.725 37.0937 19.2187 37.075 17.5375 37C15.975 36.9313 15.1313 36.6687 14.5688 36.45C13.825 36.1625 13.2875 35.8125 12.7313 35.2563C12.1688 34.6937 11.825 34.1625 11.5375 33.4187C11.3188 32.8563 11.0563 32.0063 10.9875 30.45C10.9125 28.7625 10.8938 28.2563 10.8938 23.9875C10.8938 19.7125 10.9125 19.2063 10.9875 17.525C11.0563 15.9625 11.3188 15.1187 11.5375 14.5563C11.825 13.8125 12.175 13.275 12.7313 12.7187C13.2938 12.1563 13.825 11.8125 14.5688 11.525C15.1313 11.3063 15.9813 11.0437 17.5375 10.975C19.2187 10.9 19.725 10.8812 24 10.8812ZM24 8C19.6563 8 19.1125 8.01875 17.4063 8.09375C15.7063 8.16875 14.5375 8.44375 13.525 8.8375C12.4688 9.25 11.575 9.79375 10.6875 10.6875C9.79375 11.575 9.25 12.4688 8.8375 13.5188C8.44375 14.5375 8.16875 15.7 8.09375 17.4C8.01875 19.1125 8 19.6563 8 24C8 28.3437 8.01875 28.8875 8.09375 30.5937C8.16875 32.2937 8.44375 33.4625 8.8375 34.475C9.25 35.5313 9.79375 36.425 10.6875 37.3125C11.575 38.2 12.4688 38.75 13.5188 39.1563C14.5375 39.55 15.7 39.825 17.4 39.9C19.1063 39.975 19.65 39.9937 23.9937 39.9937C28.3375 39.9937 28.8813 39.975 30.5875 39.9C32.2875 39.825 33.4563 39.55 34.4687 39.1563C35.5187 38.75 36.4125 38.2 37.3 37.3125C38.1875 36.425 38.7375 35.5313 39.1437 34.4813C39.5375 33.4625 39.8125 32.3 39.8875 30.6C39.9625 28.8937 39.9813 28.35 39.9813 24.0063C39.9813 19.6625 39.9625 19.1187 39.8875 17.4125C39.8125 15.7125 39.5375 14.5438 39.1437 13.5313C38.75 12.4687 38.2063 11.575 37.3125 10.6875C36.425 9.8 35.5313 9.25 34.4813 8.84375C33.4625 8.45 32.3 8.175 30.6 8.1C28.8875 8.01875 28.3437 8 24 8Z" fill="white" fill-opacity="0.8"/>
<path d="M24 15.7812C19.4625 15.7812 15.7812 19.4625 15.7812 24C15.7812 28.5375 19.4625 32.2187 24 32.2187C28.5375 32.2187 32.2187 28.5375 32.2187 24C32.2187 19.4625 28.5375 15.7812 24 15.7812ZM24 29.3313C21.0563 29.3313 18.6687 26.9437 18.6687 24C18.6687 21.0563 21.0563 18.6687 24 18.6687C26.9437 18.6687 29.3313 21.0563 29.3313 24C29.3313 26.9437 26.9437 29.3313 24 29.3313Z" fill="white" fill-opacity="0.8"/>
<path d="M34.4625 15.4564C34.4625 16.5189 33.6 17.3751 32.5437 17.3751C31.4813 17.3751 30.625 16.5126 30.625 15.4564C30.625 14.3939 31.4875 13.5376 32.5437 13.5376C33.6 13.5376 34.4625 14.4001 34.4625 15.4564Z" fill="white" fill-opacity="0.8"/>
</g>
</svg>
