<svg width="87" height="87" viewBox="0 0 87 87" fill="none" xmlns="http://www.w3.org/2000/svg">
<mask id="mask0_24_67" style="mask-type:luminance" maskUnits="userSpaceOnUse" x="13" y="12" width="60" height="60">
<path d="M72.6923 12.3077H13.4615V71.5385H72.6923V12.3077Z" fill="white"/>
</mask>
<g mask="url(#mask0_24_67)">
<path d="M43.0769 17.6408C50.9898 17.6408 51.9269 17.6755 55.0388 17.8143C57.9309 17.9416 59.4926 18.4275 60.5338 18.8323C61.9105 19.3645 62.9054 20.0123 63.9349 21.0419C64.9762 22.0831 65.6124 23.0664 66.1446 24.4431C66.5495 25.4842 67.0353 27.0575 67.1626 29.9381C67.3015 33.0616 67.3361 33.9986 67.3361 41.9C67.3361 49.8129 67.3015 50.7498 67.1626 53.8618C67.0353 56.754 66.5495 58.3157 66.1446 59.3568C65.6124 60.7335 64.9646 61.7284 63.9349 62.758C62.8938 63.7991 61.9105 64.4355 60.5338 64.9676C59.4926 65.3724 57.9193 65.8584 55.0388 65.9856C51.9153 66.1244 50.9782 66.1591 43.0769 66.1591C35.1641 66.1591 34.227 66.1244 31.1152 65.9856C28.223 65.8584 26.6612 65.3724 25.6201 64.9676C24.2434 64.4355 23.2485 63.7876 22.2189 62.758C21.1778 61.7168 20.5415 60.7335 20.0093 59.3568C19.6044 58.3157 19.1186 56.7424 18.9913 53.8618C18.8525 50.7384 18.8178 49.8013 18.8178 41.9C18.8178 33.9872 18.8525 33.0501 18.9913 29.9381C19.1186 27.0459 19.6044 25.4842 20.0093 24.4431C20.5415 23.0664 21.1893 22.0715 22.2189 21.0419C23.2601 20.0008 24.2434 19.3645 25.6201 18.8323C26.6612 18.4275 28.2346 17.9416 31.1152 17.8143C34.227 17.6755 35.1641 17.6408 43.0769 17.6408ZM43.0769 12.3077C35.0369 12.3077 34.0304 12.3424 30.8722 12.4812C27.7256 12.6201 25.5622 13.1291 23.6881 13.8579C21.733 14.6214 20.0787 15.6279 18.436 17.2822C16.7817 18.9249 15.7752 20.5792 15.0117 22.5227C14.2829 24.4084 13.7739 26.5601 13.6351 29.7067C13.4963 32.8765 13.4615 33.883 13.4615 41.9231C13.4615 49.9632 13.4963 50.9697 13.6351 54.1278C13.7739 57.2745 14.2829 59.4379 15.0117 61.3119C15.7752 63.267 16.7817 64.9213 18.436 66.5641C20.0787 68.2067 21.733 69.2248 23.6765 69.9768C25.5622 70.7055 27.714 71.2146 30.8606 71.3534C34.0188 71.4922 35.0253 71.5269 43.0653 71.5269C51.1055 71.5269 52.112 71.4922 55.2702 71.3534C58.4168 71.2146 60.5801 70.7055 62.4542 69.9768C64.3977 69.2248 66.0521 68.2067 67.6947 66.5641C69.3375 64.9213 70.3555 63.267 71.1074 61.3235C71.8363 59.4379 72.3453 57.2861 72.4841 54.1394C72.623 50.9812 72.6576 49.9748 72.6576 41.9347C72.6576 33.8946 72.623 32.8881 72.4841 29.7299C72.3453 26.5833 71.8363 24.4199 71.1074 22.5458C70.3786 20.5792 69.3722 18.9249 67.7179 17.2822C66.0751 15.6394 64.4209 14.6214 62.4774 13.8695C60.5917 13.1406 58.4399 12.6316 55.2933 12.4928C52.1236 12.3424 51.117 12.3077 43.0769 12.3077Z" fill="white"/>
<path d="M43.0769 26.7105C34.6783 26.7105 27.8644 33.5244 27.8644 41.9231C27.8644 50.3218 34.6783 57.1357 43.0769 57.1357C51.4756 57.1357 58.2895 50.3218 58.2895 41.9231C58.2895 33.5244 51.4756 26.7105 43.0769 26.7105ZM43.0769 51.7911C37.6282 51.7911 33.209 47.3718 33.209 41.9231C33.209 36.4744 37.6282 32.0551 43.0769 32.0551C48.5257 32.0551 52.9449 36.4744 52.9449 41.9231C52.9449 47.3718 48.5257 51.7911 43.0769 51.7911Z" fill="white"/>
<path d="M62.4426 26.109C62.4426 28.0757 60.8462 29.6605 58.8911 29.6605C56.9245 29.6605 55.3396 28.0641 55.3396 26.109C55.3396 24.1423 56.9361 22.5574 58.8911 22.5574C60.8462 22.5574 62.4426 24.1539 62.4426 26.109Z" fill="white"/>
</g>
</svg>
