<svg width="295" height="85" viewBox="0 0 295 85" fill="none" xmlns="http://www.w3.org/2000/svg">
<path d="M140.618 84.8829C164.449 84.8829 183.768 65.8812 183.768 42.4415C183.768 19.0017 164.449 0 140.618 0C116.786 0 97.4668 19.0017 97.4668 42.4415C97.4668 65.8812 116.786 84.8829 140.618 84.8829Z" fill="white"/>
<mask id="mask0_116_49" style="mask-type:alpha" maskUnits="userSpaceOnUse" x="97" y="0" width="87" height="85">
<path d="M140.618 84.8829C164.449 84.8829 183.768 65.8812 183.768 42.4415C183.768 19.0017 164.449 0 140.618 0C116.786 0 97.4668 19.0017 97.4668 42.4415C97.4668 65.8812 116.786 84.8829 140.618 84.8829Z" fill="white"/>
</mask>
<g mask="url(#mask0_116_49)">
<path d="M141.884 67.1123L148.855 60.2383L138.903 50.4752L137.95 32.4438L154.173 33.3994L153.624 23.2442L126.664 21.3723L128.649 54.1285L141.884 67.1123Z" fill="#D10363"/>
</g>
<path d="M152.146 47.0682L152.36 38.5508L143.701 38.3399L143.486 46.8573L152.146 47.0682Z" fill="#D10363"/>
<path d="M1.23736 41.5682L3.9691 41.4278C4.00717 42.2828 4.15629 42.8601 4.41646 43.1597C4.83526 43.6465 5.60941 43.8899 6.73892 43.8899C7.67804 43.8899 8.357 43.7245 8.77584 43.3937C9.19463 43.063 9.40405 42.6636 9.40405 42.1954C9.40405 41.7898 9.2327 41.4465 8.89001 41.1656C8.64888 40.9597 7.98578 40.6258 6.90071 40.1639C5.82199 39.7021 5.03197 39.3183 4.53068 39.0125C4.03573 38.7004 3.64548 38.2978 3.35993 37.8048C3.07439 37.3117 2.93161 36.7344 2.93161 36.0729C2.93161 34.9182 3.35676 33.9602 4.20706 33.1988C5.05735 32.4374 6.28838 32.0566 7.90014 32.0566C9.53726 32.0566 10.8032 32.4342 11.6979 33.1894C12.599 33.9446 13.094 34.9494 13.1828 36.2039L10.432 36.3256C10.3622 35.6703 10.1211 35.1678 9.7086 34.8184C9.29612 34.4689 8.68695 34.2941 7.8811 34.2941C7.08791 34.2941 6.52 34.4314 6.17734 34.706C5.84102 34.9806 5.67287 35.327 5.67287 35.7452C5.67287 36.1384 5.82833 36.4629 6.13926 36.7188C6.45019 36.981 7.13866 37.3398 8.20475 37.7954C9.81016 38.4757 10.8317 39.028 11.2696 39.4524C11.9232 40.0766 12.25 40.8786 12.25 41.8584C12.25 43.0692 11.7614 44.1052 10.7842 44.9665C9.81328 45.8216 8.45856 46.2491 6.71988 46.2491C5.52057 46.2491 4.47991 46.0525 3.59789 45.6593C2.7222 45.2599 2.10352 44.7075 1.74182 44.0023C1.38013 43.297 1.21197 42.4856 1.23736 41.5682ZM41.0313 41.072L43.9248 41.5027C43.3601 43.0443 42.513 44.2238 41.3835 45.0414C40.254 45.8528 38.931 46.2585 37.4144 46.2585C35.7074 46.2585 34.3717 45.7529 33.4072 44.7418C32.449 43.7308 31.9699 42.2641 31.9699 40.3418C31.9699 38.7815 32.2903 37.3554 32.9313 36.0635C33.5785 34.7653 34.4732 33.7729 35.6154 33.0864C36.7576 32.3999 38.0013 32.0566 39.3465 32.0566C40.8568 32.0566 42.0783 32.4561 43.0111 33.2549C43.9439 34.0476 44.4927 35.1304 44.6577 36.5035L41.9069 36.7656C41.7547 35.9667 41.4596 35.3894 41.0217 35.0337C40.5903 34.6717 40.0128 34.4907 39.2894 34.4907C38.4962 34.4907 37.7538 34.7279 37.0622 35.2022C36.3769 35.6765 35.828 36.4193 35.4155 37.4303C35.003 38.4351 34.7969 39.4399 34.7969 40.4448C34.7969 41.5432 35.0633 42.3921 35.5963 42.9912C36.1357 43.5904 36.8052 43.8899 37.6047 43.8899C38.3471 43.8899 39.0261 43.6528 39.6416 43.1784C40.2635 42.7041 40.7267 42.002 41.0313 41.072ZM62.0076 46.015L64.9297 32.2907H67.7947L64.8821 46.015H62.0076Z" fill="white"/>
<path d="M1.23736 41.5682L3.9691 41.4278C4.00717 42.2828 4.15629 42.8601 4.41646 43.1597C4.83526 43.6465 5.60941 43.8899 6.73892 43.8899C7.67804 43.8899 8.357 43.7245 8.77584 43.3937C9.19463 43.063 9.40405 42.6636 9.40405 42.1954C9.40405 41.7898 9.2327 41.4465 8.89001 41.1656C8.64888 40.9597 7.98578 40.6258 6.90071 40.1639C5.82199 39.7021 5.03197 39.3183 4.53068 39.0125C4.03573 38.7004 3.64548 38.2978 3.35993 37.8048C3.07439 37.3117 2.93161 36.7344 2.93161 36.0729C2.93161 34.9182 3.35676 33.9602 4.20706 33.1988C5.05735 32.4374 6.28838 32.0566 7.90014 32.0566C9.53726 32.0566 10.8032 32.4342 11.6979 33.1894C12.599 33.9446 13.094 34.9494 13.1828 36.2039L10.432 36.3256C10.3622 35.6703 10.1211 35.1678 9.7086 34.8184C9.29612 34.4689 8.68695 34.2941 7.8811 34.2941C7.08791 34.2941 6.52 34.4314 6.17734 34.706C5.84102 34.9806 5.67287 35.327 5.67287 35.7452C5.67287 36.1384 5.82833 36.4629 6.13926 36.7188C6.45019 36.981 7.13866 37.3398 8.20475 37.7954C9.81016 38.4757 10.8317 39.028 11.2696 39.4524C11.9232 40.0766 12.25 40.8786 12.25 41.8584C12.25 43.0692 11.7614 44.1052 10.7842 44.9665C9.81328 45.8216 8.45856 46.2491 6.71988 46.2491C5.52057 46.2491 4.47991 46.0525 3.59789 45.6593C2.7222 45.2599 2.10352 44.7075 1.74182 44.0023C1.38013 43.297 1.21197 42.4856 1.23736 41.5682ZM41.0313 41.072L43.9248 41.5027C43.3601 43.0443 42.513 44.2238 41.3835 45.0414C40.254 45.8528 38.931 46.2585 37.4144 46.2585C35.7074 46.2585 34.3717 45.7529 33.4072 44.7418C32.449 43.7308 31.9699 42.2641 31.9699 40.3418C31.9699 38.7815 32.2903 37.3554 32.9313 36.0635C33.5785 34.7653 34.4732 33.7729 35.6154 33.0864C36.7576 32.3999 38.0013 32.0566 39.3465 32.0566C40.8568 32.0566 42.0783 32.4561 43.0111 33.2549C43.9439 34.0476 44.4927 35.1304 44.6577 36.5035L41.9069 36.7656C41.7547 35.9667 41.4596 35.3894 41.0217 35.0337C40.5903 34.6717 40.0128 34.4907 39.2894 34.4907C38.4962 34.4907 37.7538 34.7279 37.0622 35.2022C36.3769 35.6765 35.828 36.4193 35.4155 37.4303C35.003 38.4351 34.7969 39.4399 34.7969 40.4448C34.7969 41.5432 35.0633 42.3921 35.5963 42.9912C36.1357 43.5904 36.8052 43.8899 37.6047 43.8899C38.3471 43.8899 39.0261 43.6528 39.6416 43.1784C40.2635 42.7041 40.7267 42.002 41.0313 41.072ZM62.0076 46.015L64.9297 32.2907H67.7947L64.8821 46.015H62.0076Z" fill="white"/>
<path d="M219.487 41.072L222.38 41.5027C221.816 43.0443 220.968 44.2238 219.839 45.0414C218.71 45.8528 217.387 46.2585 215.87 46.2585C214.163 46.2585 212.827 45.7529 211.863 44.7418C210.905 43.7308 210.426 42.2641 210.426 40.3418C210.426 38.7815 210.746 37.3554 211.387 36.0635C212.034 34.7653 212.929 33.7729 214.071 33.0864C215.213 32.3999 216.457 32.0566 217.802 32.0566C219.313 32.0566 220.534 32.4561 221.467 33.2549C222.4 34.0476 222.948 35.1304 223.113 36.5035L220.363 36.7656C220.21 35.9667 219.915 35.3894 219.477 35.0337C219.046 34.6717 218.469 34.4907 217.745 34.4907C216.952 34.4907 216.209 34.7279 215.518 35.2022C214.833 35.6765 214.284 36.4193 213.872 37.4303C213.459 38.4351 213.252 39.4399 213.252 40.4448C213.252 41.5432 213.519 42.3921 214.052 42.9912C214.592 43.5904 215.261 43.8899 216.061 43.8899C216.803 43.8899 217.482 43.6528 218.097 43.1784C218.719 42.7041 219.182 42.002 219.487 41.072ZM228.967 46.015L231.889 32.2907H234.754L232.327 43.7214H239.428L238.943 46.015H228.967ZM254.286 42.9818H248.756L247.08 46.015H244.13L252.02 32.2907H255.209L257.474 46.015H254.752L254.286 42.9818ZM253.934 40.6976L253.125 35.1741L249.755 40.6976H253.934ZM264.375 41.5682L267.107 41.4278C267.145 42.2828 267.294 42.8601 267.554 43.1597C267.973 43.6465 268.747 43.8899 269.877 43.8899C270.816 43.8899 271.495 43.7245 271.914 43.3937C272.332 43.063 272.542 42.6636 272.542 42.1954C272.542 41.7898 272.371 41.4465 272.027 41.1656C271.786 40.9597 271.124 40.6258 270.039 40.1639C268.96 39.7021 268.17 39.3183 267.669 39.0125C267.174 38.7004 266.783 38.2978 266.498 37.8048C266.212 37.3117 266.07 36.7344 266.07 36.0729C266.07 34.9182 266.495 33.9602 267.345 33.1988C268.195 32.4374 269.426 32.0566 271.038 32.0566C272.675 32.0566 273.941 32.4342 274.836 33.1894C275.736 33.9446 276.232 34.9494 276.321 36.2039L273.57 36.3256C273.5 35.6703 273.259 35.1678 272.846 34.8184C272.434 34.4689 271.825 34.2941 271.019 34.2941C270.226 34.2941 269.658 34.4314 269.315 34.706C268.979 34.9806 268.81 35.327 268.81 35.7452C268.81 36.1384 268.966 36.4629 269.277 36.7188C269.588 36.981 270.276 37.3398 271.343 37.7954C272.948 38.4757 273.97 39.028 274.408 39.4524C275.061 40.0766 275.388 40.8786 275.388 41.8584C275.388 43.0692 274.899 44.1052 273.922 44.9665C272.951 45.8216 271.596 46.2491 269.858 46.2491C268.658 46.2491 267.617 46.0525 266.736 45.6593C265.86 45.2599 265.241 44.7075 264.88 44.0023C264.518 43.297 264.35 42.4856 264.375 41.5682ZM282.803 41.5682L285.534 41.4278C285.572 42.2828 285.722 42.8601 285.982 43.1597C286.401 43.6465 287.175 43.8899 288.304 43.8899C289.243 43.8899 289.922 43.7245 290.341 43.3937C290.76 43.063 290.969 42.6636 290.969 42.1954C290.969 41.7898 290.798 41.4465 290.455 41.1656C290.214 40.9597 289.551 40.6258 288.466 40.1639C287.387 39.7021 286.597 39.3183 286.096 39.0125C285.601 38.7004 285.211 38.2978 284.925 37.8048C284.64 37.3117 284.497 36.7344 284.497 36.0729C284.497 34.9182 284.922 33.9602 285.772 33.1988C286.622 32.4374 287.854 32.0566 289.465 32.0566C291.102 32.0566 292.368 32.4342 293.263 33.1894C294.164 33.9446 294.659 34.9494 294.748 36.2039L291.997 36.3256C291.927 35.6703 291.686 35.1678 291.274 34.8184C290.861 34.4689 290.252 34.2941 289.446 34.2941C288.653 34.2941 288.085 34.4314 287.742 34.706C287.406 34.9806 287.238 35.327 287.238 35.7452C287.238 36.1384 287.393 36.4629 287.704 36.7188C288.015 36.981 288.704 37.3398 289.77 37.7954C291.375 38.4757 292.397 39.028 292.835 39.4524C293.488 40.0766 293.815 40.8786 293.815 41.8584C293.815 43.0692 293.327 44.1052 292.349 44.9665C291.379 45.8216 290.024 46.2491 288.285 46.2491C287.085 46.2491 286.045 46.0525 285.163 45.6593C284.288 45.2599 283.669 44.7075 283.307 44.0023C282.945 43.297 282.777 42.4856 282.803 41.5682Z" fill="white"/>
<path d="M219.487 41.072L222.38 41.5027C221.816 43.0443 220.968 44.2238 219.839 45.0414C218.71 45.8528 217.387 46.2585 215.87 46.2585C214.163 46.2585 212.827 45.7529 211.863 44.7418C210.905 43.7308 210.426 42.2641 210.426 40.3418C210.426 38.7815 210.746 37.3554 211.387 36.0635C212.034 34.7653 212.929 33.7729 214.071 33.0864C215.213 32.3999 216.457 32.0566 217.802 32.0566C219.313 32.0566 220.534 32.4561 221.467 33.2549C222.4 34.0476 222.948 35.1304 223.113 36.5035L220.363 36.7656C220.21 35.9667 219.915 35.3894 219.477 35.0337C219.046 34.6717 218.469 34.4907 217.745 34.4907C216.952 34.4907 216.209 34.7279 215.518 35.2022C214.833 35.6765 214.284 36.4193 213.872 37.4303C213.459 38.4351 213.252 39.4399 213.252 40.4448C213.252 41.5432 213.519 42.3921 214.052 42.9912C214.592 43.5904 215.261 43.8899 216.061 43.8899C216.803 43.8899 217.482 43.6528 218.097 43.1784C218.719 42.7041 219.182 42.002 219.487 41.072ZM228.967 46.015L231.889 32.2907H234.754L232.327 43.7214H239.428L238.943 46.015H228.967ZM254.286 42.9818H248.756L247.08 46.015H244.13L252.02 32.2907H255.209L257.474 46.015H254.752L254.286 42.9818ZM253.934 40.6976L253.125 35.1741L249.755 40.6976H253.934ZM264.375 41.5682L267.107 41.4278C267.145 42.2828 267.294 42.8601 267.554 43.1597C267.973 43.6465 268.747 43.8899 269.877 43.8899C270.816 43.8899 271.495 43.7245 271.914 43.3937C272.332 43.063 272.542 42.6636 272.542 42.1954C272.542 41.7898 272.371 41.4465 272.027 41.1656C271.786 40.9597 271.124 40.6258 270.039 40.1639C268.96 39.7021 268.17 39.3183 267.669 39.0125C267.174 38.7004 266.783 38.2978 266.498 37.8048C266.212 37.3117 266.07 36.7344 266.07 36.0729C266.07 34.9182 266.495 33.9602 267.345 33.1988C268.195 32.4374 269.426 32.0566 271.038 32.0566C272.675 32.0566 273.941 32.4342 274.836 33.1894C275.736 33.9446 276.232 34.9494 276.321 36.2039L273.57 36.3256C273.5 35.6703 273.259 35.1678 272.846 34.8184C272.434 34.4689 271.825 34.2941 271.019 34.2941C270.226 34.2941 269.658 34.4314 269.315 34.706C268.979 34.9806 268.81 35.327 268.81 35.7452C268.81 36.1384 268.966 36.4629 269.277 36.7188C269.588 36.981 270.276 37.3398 271.343 37.7954C272.948 38.4757 273.97 39.028 274.408 39.4524C275.061 40.0766 275.387 40.8786 275.387 41.8584C275.387 43.0692 274.899 44.1052 273.922 44.9665C272.951 45.8216 271.596 46.2491 269.858 46.2491C268.658 46.2491 267.617 46.0525 266.736 45.6593C265.86 45.2599 265.241 44.7075 264.88 44.0023C264.518 43.297 264.35 42.4856 264.375 41.5682ZM282.803 41.5682L285.534 41.4278C285.572 42.2828 285.722 42.8601 285.982 43.1597C286.401 43.6465 287.175 43.8899 288.304 43.8899C289.243 43.8899 289.922 43.7245 290.341 43.3937C290.76 43.063 290.969 42.6636 290.969 42.1954C290.969 41.7898 290.798 41.4465 290.455 41.1656C290.214 40.9597 289.551 40.6258 288.466 40.1639C287.387 39.7021 286.597 39.3183 286.096 39.0125C285.601 38.7004 285.211 38.2978 284.925 37.8048C284.64 37.3117 284.497 36.7344 284.497 36.0729C284.497 34.9182 284.922 33.9602 285.772 33.1988C286.622 32.4374 287.854 32.0566 289.465 32.0566C291.102 32.0566 292.368 32.4342 293.263 33.1894C294.164 33.9446 294.659 34.9494 294.748 36.2039L291.997 36.3256C291.927 35.6703 291.686 35.1678 291.274 34.8184C290.861 34.4689 290.252 34.2941 289.446 34.2941C288.653 34.2941 288.085 34.4314 287.742 34.706C287.406 34.9806 287.238 35.327 287.238 35.7452C287.238 36.1384 287.393 36.4629 287.704 36.7188C288.015 36.981 288.704 37.3398 289.77 37.7954C291.375 38.4757 292.397 39.028 292.835 39.4524C293.488 40.0766 293.815 40.8786 293.815 41.8584C293.815 43.0692 293.327 44.1052 292.349 44.9665C291.379 45.8216 290.024 46.2491 288.285 46.2491C287.085 46.2491 286.045 46.0525 285.163 45.6593C284.288 45.2599 283.669 44.7075 283.307 44.0023C282.945 43.297 282.777 42.4856 282.803 41.5682Z" fill="white"/>
</svg>
