<svg width="80" height="80" viewBox="0 0 80 80" fill="none" xmlns="http://www.w3.org/2000/svg">
<path d="M40.1333 74.2667C58.9847 74.2667 74.2667 58.9847 74.2667 40.1333C74.2667 21.282 58.9847 6 40.1333 6C21.282 6 6 21.282 6 40.1333C6 58.9847 21.282 74.2667 40.1333 74.2667Z" fill="#D10363"/>
<mask id="mask0_119_61" style="mask-type:alpha" maskUnits="userSpaceOnUse" x="6" y="6" width="69" height="69">
<path d="M40.1333 74.2667C58.9847 74.2667 74.2667 58.9847 74.2667 40.1333C74.2667 21.282 58.9847 6 40.1333 6C21.282 6 6 21.282 6 40.1333C6 58.9847 21.282 74.2667 40.1333 74.2667Z" fill="#D10363"/>
</mask>
<g mask="url(#mask0_119_61)">
<path d="M41.1351 59.9745L46.6491 54.4461L38.7768 46.5944L38.0226 32.0928L50.8551 32.8613L50.4208 24.694L29.0952 23.1885L30.6656 49.5327L41.1351 59.9745Z" fill="white"/>
</g>
<path d="M40.1333 74.2667C58.9847 74.2667 74.2667 58.9847 74.2667 40.1333C74.2667 21.282 58.9847 6 40.1333 6C21.282 6 6 21.282 6 40.1333C6 58.9847 21.282 74.2667 40.1333 74.2667Z" fill="#D10363"/>
<mask id="mask1_119_61" style="mask-type:alpha" maskUnits="userSpaceOnUse" x="6" y="6" width="69" height="69">
<path d="M40.1333 74.2667C58.9847 74.2667 74.2667 58.9847 74.2667 40.1333C74.2667 21.282 58.9847 6 40.1333 6C21.282 6 6 21.282 6 40.1333C6 58.9847 21.282 74.2667 40.1333 74.2667Z" fill="#D10363"/>
</mask>
<g mask="url(#mask1_119_61)">
<path d="M41.1351 59.9745L46.6491 54.4461L38.7768 46.5944L38.0226 32.0928L50.8551 32.8613L50.4208 24.694L29.0952 23.1885L30.6656 49.5327L41.1351 59.9745Z" fill="white"/>
</g>
<path d="M49.2518 43.8543L49.4214 37.0043L42.5713 36.8347L42.4018 43.6848L49.2518 43.8543Z" fill="white"/>
</svg>
