<svg width="454" height="133" viewBox="0 0 454 133" fill="none" xmlns="http://www.w3.org/2000/svg">
<path d="M216.408 132.817C253.084 132.817 282.816 103.085 282.816 66.4084C282.816 29.7321 253.084 0 216.408 0C179.732 0 150 29.7321 150 66.4084C150 103.085 179.732 132.817 216.408 132.817Z" fill="white"/>
<mask id="mask0_62_2" style="mask-type:alpha" maskUnits="userSpaceOnUse" x="149" y="0" width="134" height="133">
<path d="M216.408 132.817C253.084 132.817 282.816 103.085 282.816 66.4084C282.816 29.7321 253.084 0 216.408 0C179.732 0 150 29.7321 150 66.4084C150 103.085 179.732 132.817 216.408 132.817Z" fill="white"/>
</mask>
<g mask="url(#mask0_62_2)">
<path d="M218.357 105.011L229.085 94.2552L213.769 78.9789L212.302 50.765L237.269 52.2603L236.424 36.3703L194.933 33.4414L197.989 84.6952L218.357 105.011Z" fill="#D10363"/>
</g>
<path d="M234.15 73.648L234.48 60.3208L221.153 59.9909L220.823 73.3181L234.15 73.648Z" fill="#D10363"/>
<path d="M1.90423 65.042L6.10833 64.8223C6.16692 66.1602 6.39641 67.0635 6.79681 67.5322C7.44134 68.2939 8.63274 68.6748 10.371 68.6748C11.8163 68.6748 12.8612 68.416 13.5058 67.8984C14.1503 67.3809 14.4726 66.7559 14.4726 66.0234C14.4726 65.3887 14.2089 64.8516 13.6815 64.4121C13.3104 64.0898 12.2899 63.5674 10.62 62.8447C8.95989 62.1221 7.74407 61.5215 6.97259 61.043C6.21087 60.5547 5.61028 59.9248 5.17083 59.1533C4.73138 58.3818 4.51165 57.4785 4.51165 56.4434C4.51165 54.6367 5.16595 53.1377 6.47454 51.9463C7.78313 50.7549 9.67766 50.1592 12.1581 50.1592C14.6776 50.1592 16.6259 50.75 18.0028 51.9316C19.3895 53.1133 20.1513 54.6855 20.288 56.6484L16.0546 56.8389C15.9472 55.8135 15.5761 55.0273 14.9413 54.4805C14.3065 53.9336 13.369 53.6602 12.1288 53.6602C10.9081 53.6602 10.0341 53.875 9.50677 54.3047C8.98919 54.7344 8.7304 55.2764 8.7304 55.9307C8.7304 56.5459 8.96966 57.0537 9.44817 57.4541C9.92669 57.8643 10.9862 58.4258 12.6269 59.1387C15.0976 60.2031 16.6698 61.0674 17.3437 61.7314C18.3495 62.708 18.8524 63.9629 18.8524 65.4961C18.8524 67.3906 18.1005 69.0117 16.5966 70.3594C15.1024 71.6973 13.0175 72.3662 10.3417 72.3662C8.49602 72.3662 6.89446 72.0586 5.53704 71.4434C4.18938 70.8184 3.23723 69.9541 2.68059 68.8506C2.12395 67.7471 1.86516 66.4775 1.90423 65.042ZM63.1464 64.2656L67.5995 64.9395C66.7304 67.3516 65.4267 69.1973 63.6884 70.4766C61.9501 71.7461 59.914 72.3809 57.58 72.3809C54.953 72.3809 52.8974 71.5898 51.413 70.0078C49.9384 68.4258 49.2011 66.1309 49.2011 63.123C49.2011 60.6816 49.6942 58.4502 50.6806 56.4287C51.6767 54.3975 53.0536 52.8447 54.8114 51.7705C56.5692 50.6963 58.4833 50.1592 60.5536 50.1592C62.8778 50.1592 64.7577 50.7842 66.1933 52.0342C67.6288 53.2744 68.4735 54.9688 68.7274 57.1172L64.494 57.5273C64.2597 56.2773 63.8056 55.374 63.1317 54.8174C62.4677 54.251 61.579 53.9678 60.4657 53.9678C59.245 53.9678 58.1024 54.3389 57.038 55.0811C55.9833 55.8232 55.1386 56.9854 54.5038 58.5674C53.869 60.1396 53.5517 61.7119 53.5517 63.2842C53.5517 65.0029 53.9618 66.3311 54.7821 67.2686C55.6122 68.2061 56.6425 68.6748 57.8729 68.6748C59.0155 68.6748 60.0604 68.3037 61.0077 67.5615C61.9647 66.8193 62.6776 65.7207 63.1464 64.2656ZM95.4286 72L99.9257 50.5254H104.335L99.8524 72H95.4286Z" fill="white"/>
<path d="M1.90423 65.042L6.10833 64.8223C6.16692 66.1602 6.39641 67.0635 6.79681 67.5322C7.44134 68.2939 8.63274 68.6748 10.371 68.6748C11.8163 68.6748 12.8612 68.416 13.5058 67.8984C14.1503 67.3809 14.4726 66.7559 14.4726 66.0234C14.4726 65.3887 14.2089 64.8516 13.6815 64.4121C13.3104 64.0898 12.2899 63.5674 10.62 62.8447C8.95989 62.1221 7.74407 61.5215 6.97259 61.043C6.21087 60.5547 5.61028 59.9248 5.17083 59.1533C4.73138 58.3818 4.51165 57.4785 4.51165 56.4434C4.51165 54.6367 5.16595 53.1377 6.47454 51.9463C7.78313 50.7549 9.67766 50.1592 12.1581 50.1592C14.6776 50.1592 16.6259 50.75 18.0028 51.9316C19.3895 53.1133 20.1513 54.6855 20.288 56.6484L16.0546 56.8389C15.9472 55.8135 15.5761 55.0273 14.9413 54.4805C14.3065 53.9336 13.369 53.6602 12.1288 53.6602C10.9081 53.6602 10.0341 53.875 9.50677 54.3047C8.98919 54.7344 8.7304 55.2764 8.7304 55.9307C8.7304 56.5459 8.96966 57.0537 9.44817 57.4541C9.92669 57.8643 10.9862 58.4258 12.6269 59.1387C15.0976 60.2031 16.6698 61.0674 17.3437 61.7314C18.3495 62.708 18.8524 63.9629 18.8524 65.4961C18.8524 67.3906 18.1005 69.0117 16.5966 70.3594C15.1024 71.6973 13.0175 72.3662 10.3417 72.3662C8.49602 72.3662 6.89446 72.0586 5.53704 71.4434C4.18938 70.8184 3.23723 69.9541 2.68059 68.8506C2.12395 67.7471 1.86516 66.4775 1.90423 65.042ZM63.1464 64.2656L67.5995 64.9395C66.7304 67.3516 65.4267 69.1973 63.6884 70.4766C61.9501 71.7461 59.914 72.3809 57.58 72.3809C54.953 72.3809 52.8974 71.5898 51.413 70.0078C49.9384 68.4258 49.2011 66.1309 49.2011 63.123C49.2011 60.6816 49.6942 58.4502 50.6806 56.4287C51.6767 54.3975 53.0536 52.8447 54.8114 51.7705C56.5692 50.6963 58.4833 50.1592 60.5536 50.1592C62.8778 50.1592 64.7577 50.7842 66.1933 52.0342C67.6288 53.2744 68.4735 54.9688 68.7274 57.1172L64.494 57.5273C64.2597 56.2773 63.8056 55.374 63.1317 54.8174C62.4677 54.251 61.579 53.9678 60.4657 53.9678C59.245 53.9678 58.1024 54.3389 57.038 55.0811C55.9833 55.8232 55.1386 56.9854 54.5038 58.5674C53.869 60.1396 53.5517 61.7119 53.5517 63.2842C53.5517 65.0029 53.9618 66.3311 54.7821 67.2686C55.6122 68.2061 56.6425 68.6748 57.8729 68.6748C59.0155 68.6748 60.0604 68.3037 61.0077 67.5615C61.9647 66.8193 62.6776 65.7207 63.1464 64.2656ZM95.4286 72L99.9257 50.5254H104.335L99.8524 72H95.4286Z" fill="white"/>
<path d="M332.787 64.2656L337.24 64.9395C336.371 67.3516 335.067 69.1973 333.329 70.4766C331.591 71.7461 329.555 72.3809 327.221 72.3809C324.594 72.3809 322.538 71.5898 321.054 70.0078C319.579 68.4258 318.842 66.1309 318.842 63.123C318.842 60.6816 319.335 58.4502 320.321 56.4287C321.317 54.3975 322.694 52.8447 324.452 51.7705C326.21 50.6963 328.124 50.1592 330.194 50.1592C332.519 50.1592 334.398 50.7842 335.834 52.0342C337.27 53.2744 338.114 54.9688 338.368 57.1172L334.135 57.5273C333.9 56.2773 333.446 55.374 332.772 54.8174C332.108 54.251 331.22 53.9678 330.106 53.9678C328.886 53.9678 327.743 54.3389 326.679 55.0811C325.624 55.8232 324.779 56.9854 324.145 58.5674C323.51 60.1396 323.192 61.7119 323.192 63.2842C323.192 65.0029 323.603 66.3311 324.423 67.2686C325.253 68.2061 326.283 68.6748 327.514 68.6748C328.656 68.6748 329.701 68.3037 330.648 67.5615C331.605 66.8193 332.318 65.7207 332.787 64.2656ZM347.377 72L351.874 50.5254H356.283L352.548 68.4111H363.476L362.729 72H347.377ZM386.342 67.2539H377.831L375.253 72H370.712L382.855 50.5254H387.763L391.249 72H387.06L386.342 67.2539ZM385.8 63.6797L384.555 55.0371L379.369 63.6797H385.8ZM401.869 65.042L406.073 64.8223C406.132 66.1602 406.361 67.0635 406.762 67.5322C407.406 68.2939 408.598 68.6748 410.336 68.6748C411.781 68.6748 412.826 68.416 413.471 67.8984C414.115 67.3809 414.438 66.7559 414.438 66.0234C414.438 65.3887 414.174 64.8516 413.646 64.4121C413.275 64.0898 412.255 63.5674 410.585 62.8447C408.925 62.1221 407.709 61.5215 406.938 61.043C406.176 60.5547 405.575 59.9248 405.136 59.1533C404.696 58.3818 404.477 57.4785 404.477 56.4434C404.477 54.6367 405.131 53.1377 406.439 51.9463C407.748 50.7549 409.643 50.1592 412.123 50.1592C414.643 50.1592 416.591 50.75 417.968 51.9316C419.354 53.1133 420.116 54.6855 420.253 56.6484L416.02 56.8389C415.912 55.8135 415.541 55.0273 414.906 54.4805C414.271 53.9336 413.334 53.6602 412.094 53.6602C410.873 53.6602 409.999 53.875 409.472 54.3047C408.954 54.7344 408.695 55.2764 408.695 55.9307C408.695 56.5459 408.935 57.0537 409.413 57.4541C409.892 57.8643 410.951 58.4258 412.592 59.1387C415.062 60.2031 416.635 61.0674 417.309 61.7314C418.314 62.708 418.817 63.9629 418.817 65.4961C418.817 67.3906 418.065 69.0117 416.562 70.3594C415.067 71.6973 412.982 72.3662 410.307 72.3662C408.461 72.3662 406.859 72.0586 405.502 71.4434C404.154 70.8184 403.202 69.9541 402.646 68.8506C402.089 67.7471 401.83 66.4775 401.869 65.042ZM430.229 65.042L434.433 64.8223C434.491 66.1602 434.721 67.0635 435.121 67.5322C435.766 68.2939 436.957 68.6748 438.695 68.6748C440.141 68.6748 441.186 68.416 441.83 67.8984C442.475 67.3809 442.797 66.7559 442.797 66.0234C442.797 65.3887 442.533 64.8516 442.006 64.4121C441.635 64.0898 440.614 63.5674 438.944 62.8447C437.284 62.1221 436.068 61.5215 435.297 61.043C434.535 60.5547 433.935 59.9248 433.495 59.1533C433.056 58.3818 432.836 57.4785 432.836 56.4434C432.836 54.6367 433.49 53.1377 434.799 51.9463C436.107 50.7549 438.002 50.1592 440.482 50.1592C443.002 50.1592 444.95 50.75 446.327 51.9316C447.714 53.1133 448.476 54.6855 448.612 56.6484L444.379 56.8389C444.271 55.8135 443.9 55.0273 443.266 54.4805C442.631 53.9336 441.693 53.6602 440.453 53.6602C439.232 53.6602 438.358 53.875 437.831 54.3047C437.313 54.7344 437.055 55.2764 437.055 55.9307C437.055 56.5459 437.294 57.0537 437.772 57.4541C438.251 57.8643 439.311 58.4258 440.951 59.1387C443.422 60.2031 444.994 61.0674 445.668 61.7314C446.674 62.708 447.177 63.9629 447.177 65.4961C447.177 67.3906 446.425 69.0117 444.921 70.3594C443.427 71.6973 441.342 72.3662 438.666 72.3662C436.82 72.3662 435.219 72.0586 433.861 71.4434C432.514 70.8184 431.562 69.9541 431.005 68.8506C430.448 67.7471 430.189 66.4775 430.229 65.042Z" fill="white"/>
</svg>
