<svg width="239" height="70" viewBox="0 0 239 70" fill="none" xmlns="http://www.w3.org/2000/svg">
<path d="M113.924 69.9036C133.232 69.9036 148.884 54.2551 148.884 34.9518C148.884 15.6485 133.232 0 113.924 0C94.6167 0 78.9648 15.6485 78.9648 34.9518C78.9648 54.2551 94.6167 69.9036 113.924 69.9036Z" fill="white"/>
<mask id="mask0_38_343" style="mask-type:alpha" maskUnits="userSpaceOnUse" x="78" y="0" width="71" height="70">
<path d="M113.924 69.9036C133.232 69.9036 148.884 54.2551 148.884 34.9518C148.884 15.6485 133.232 0 113.924 0C94.6167 0 78.9648 15.6485 78.9648 34.9518C78.9648 54.2551 94.6167 69.9036 113.924 69.9036Z" fill="white"/>
</mask>
<g mask="url(#mask0_38_343)">
<path d="M114.95 55.2689L120.598 49.608L112.535 41.5678L111.763 26.7184L124.906 27.5054L124.461 19.1422L102.619 17.6007L104.228 44.5764L114.95 55.2689Z" fill="#D10363"/>
</g>
<path d="M123.264 38.7621L123.438 31.7478L116.422 31.5742L116.248 38.5885L123.264 38.7621Z" fill="#D10363"/>
<path d="M1.00202 34.2326L3.21519 34.117C3.24604 34.8211 3.36685 35.2965 3.57763 35.5432C3.91693 35.9441 4.54412 36.1446 5.45922 36.1446C6.22007 36.1446 6.77014 36.0084 7.10947 35.736C7.44876 35.4636 7.61843 35.1346 7.61843 34.7491C7.61843 34.4151 7.47961 34.1324 7.20197 33.9011C7.00661 33.7314 6.46939 33.4565 5.5903 33.0761C4.71635 32.6958 4.0763 32.3797 3.67017 32.1279C3.26918 31.8709 2.95301 31.5393 2.72167 31.1333C2.49032 30.7272 2.37465 30.2518 2.37465 29.707C2.37465 28.7561 2.7191 27.9672 3.40798 27.3401C4.09686 26.7131 5.0942 26.3995 6.4 26.3995C7.72635 26.3995 8.75199 26.7105 9.47684 27.3324C10.2068 27.9543 10.6079 28.7818 10.6798 29.8149L8.45124 29.9152C8.3947 29.3755 8.19935 28.9617 7.86517 28.6739C7.53099 28.3861 7.03746 28.2422 6.38458 28.2422C5.74196 28.2422 5.28186 28.3552 5.00424 28.5814C4.73177 28.8075 4.59554 29.0928 4.59554 29.4372C4.59554 29.761 4.72149 30.0282 4.97339 30.239C5.2253 30.4549 5.78308 30.7504 6.64679 31.1256C7.94745 31.6858 8.7751 32.1407 9.12987 32.4902C9.65935 33.0042 9.9241 33.6646 9.9241 34.4716C9.9241 35.4687 9.52827 36.3219 8.73657 37.0312C7.94998 37.7354 6.85242 38.0874 5.44379 38.0874C4.47215 38.0874 3.62904 37.9255 2.91445 37.6017C2.205 37.2728 1.70376 36.8179 1.41072 36.2371C1.11769 35.6563 0.981456 34.9881 1.00202 34.2326ZM33.2419 33.824L35.5861 34.1786C35.1286 35.4482 34.4423 36.4196 33.5272 37.0929C32.6121 37.7611 31.5402 38.0952 30.3115 38.0952C28.9286 38.0952 27.8465 37.6788 27.065 36.8462C26.2888 36.0135 25.9006 34.8057 25.9006 33.2226C25.9006 31.9376 26.1602 30.7632 26.6795 29.6993C27.2038 28.6302 27.9287 27.813 28.8541 27.2476C29.7794 26.6822 30.7871 26.3995 31.8769 26.3995C33.1005 26.3995 34.0901 26.7285 34.8458 27.3864C35.6015 28.0391 36.0462 28.9309 36.1799 30.0616L33.9513 30.2775C33.8279 29.6196 33.5889 29.1442 33.2341 28.8512C32.8846 28.5531 32.4167 28.4041 31.8307 28.4041C31.188 28.4041 30.5865 28.5994 30.0262 28.99C29.471 29.3806 29.0263 29.9923 28.6921 30.8249C28.3579 31.6524 28.1909 32.4799 28.1909 33.3074C28.1909 34.212 28.4068 34.9111 28.8386 35.4045C29.2756 35.8979 29.818 36.1446 30.4657 36.1446C31.0672 36.1446 31.6173 35.9493 32.116 35.5586C32.6198 35.168 32.9951 34.5898 33.2419 33.824ZM50.2362 37.8947L52.6036 26.5923H54.9248L52.5651 37.8947H50.2362Z" fill="white"/>
<path d="M1.00202 34.2326L3.21519 34.117C3.24604 34.8211 3.36685 35.2965 3.57763 35.5432C3.91693 35.9441 4.54412 36.1446 5.45922 36.1446C6.22007 36.1446 6.77014 36.0084 7.10947 35.736C7.44876 35.4636 7.61843 35.1346 7.61843 34.7491C7.61843 34.4151 7.47961 34.1324 7.20197 33.9011C7.00661 33.7314 6.46939 33.4565 5.5903 33.0761C4.71635 32.6958 4.0763 32.3797 3.67017 32.1279C3.26918 31.8709 2.95301 31.5393 2.72167 31.1333C2.49032 30.7272 2.37465 30.2518 2.37465 29.707C2.37465 28.7561 2.7191 27.9672 3.40798 27.3401C4.09686 26.7131 5.0942 26.3995 6.4 26.3995C7.72635 26.3995 8.75199 26.7105 9.47684 27.3324C10.2068 27.9543 10.6079 28.7818 10.6798 29.8149L8.45124 29.9152C8.3947 29.3755 8.19935 28.9617 7.86517 28.6739C7.53099 28.3861 7.03746 28.2422 6.38458 28.2422C5.74196 28.2422 5.28186 28.3552 5.00424 28.5814C4.73177 28.8075 4.59554 29.0928 4.59554 29.4372C4.59554 29.761 4.72149 30.0282 4.97339 30.239C5.2253 30.4549 5.78308 30.7504 6.64679 31.1256C7.94745 31.6858 8.7751 32.1407 9.12987 32.4902C9.65935 33.0042 9.9241 33.6646 9.9241 34.4716C9.9241 35.4687 9.52827 36.3219 8.73657 37.0312C7.94998 37.7354 6.85242 38.0874 5.44379 38.0874C4.47215 38.0874 3.62904 37.9255 2.91445 37.6017C2.205 37.2728 1.70376 36.8179 1.41072 36.2371C1.11769 35.6563 0.981456 34.9881 1.00202 34.2326ZM33.2419 33.824L35.5861 34.1786C35.1286 35.4482 34.4423 36.4196 33.5272 37.0929C32.6121 37.7611 31.5402 38.0952 30.3115 38.0952C28.9286 38.0952 27.8465 37.6788 27.065 36.8462C26.2888 36.0135 25.9006 34.8057 25.9006 33.2226C25.9006 31.9376 26.1602 30.7632 26.6795 29.6993C27.2038 28.6302 27.9287 27.813 28.8541 27.2476C29.7794 26.6822 30.7871 26.3995 31.8769 26.3995C33.1005 26.3995 34.0901 26.7285 34.8458 27.3864C35.6015 28.0391 36.0462 28.9309 36.1799 30.0616L33.9513 30.2775C33.8279 29.6196 33.5889 29.1442 33.2341 28.8512C32.8846 28.5531 32.4167 28.4041 31.8307 28.4041C31.188 28.4041 30.5865 28.5994 30.0262 28.99C29.471 29.3806 29.0263 29.9923 28.6921 30.8249C28.3579 31.6524 28.1909 32.4799 28.1909 33.3074C28.1909 34.212 28.4068 34.9111 28.8386 35.4045C29.2756 35.8979 29.818 36.1446 30.4657 36.1446C31.0672 36.1446 31.6173 35.9493 32.116 35.5586C32.6198 35.168 32.9951 34.5898 33.2419 33.824ZM50.2362 37.8947L52.6036 26.5923H54.9248L52.5651 37.8947H50.2362Z" fill="white"/>
<path d="M177.822 33.824L180.166 34.1786C179.708 35.4482 179.022 36.4196 178.107 37.0929C177.192 37.7611 176.12 38.0952 174.891 38.0952C173.509 38.0952 172.426 37.6788 171.645 36.8462C170.868 36.0135 170.48 34.8057 170.48 33.2226C170.48 31.9376 170.74 30.7632 171.259 29.6993C171.783 28.6302 172.508 27.813 173.434 27.2476C174.359 26.6822 175.367 26.3995 176.457 26.3995C177.68 26.3995 178.67 26.7285 179.426 27.3864C180.182 28.0391 180.626 28.9309 180.76 30.0616L178.531 30.2775C178.407 29.6196 178.168 29.1442 177.814 28.8512C177.464 28.5531 176.997 28.4041 176.41 28.4041C175.768 28.4041 175.166 28.5994 174.606 28.99C174.051 29.3806 173.606 29.9923 173.272 30.8249C172.938 31.6524 172.77 32.4799 172.77 33.3074C172.77 34.212 172.987 34.9111 173.418 35.4045C173.855 35.8979 174.398 36.1446 175.046 36.1446C175.647 36.1446 176.197 35.9493 176.696 35.5586C177.199 35.168 177.575 34.5898 177.822 33.824ZM185.502 37.8947L187.87 26.5923H190.191L188.224 36.0058H193.977L193.584 37.8947H185.502ZM206.015 35.3967H201.534L200.177 37.8947H197.786L204.179 26.5923H206.763L208.598 37.8947H206.393L206.015 35.3967ZM205.729 33.5156L205.074 28.9669L202.344 33.5156H205.729ZM214.188 34.2326L216.402 34.117C216.433 34.8211 216.553 35.2965 216.764 35.5432C217.103 35.9441 217.731 36.1446 218.646 36.1446C219.406 36.1446 219.957 36.0084 220.296 35.736C220.635 35.4636 220.805 35.1346 220.805 34.7491C220.805 34.4151 220.666 34.1324 220.388 33.9011C220.193 33.7314 219.656 33.4565 218.777 33.0761C217.903 32.6958 217.263 32.3797 216.857 32.1279C216.456 31.8709 216.139 31.5393 215.908 31.1333C215.677 30.7272 215.561 30.2518 215.561 29.707C215.561 28.7561 215.906 27.9672 216.594 27.3401C217.283 26.7131 218.281 26.3995 219.587 26.3995C220.913 26.3995 221.939 26.7105 222.664 27.3324C223.393 27.9543 223.794 28.7818 223.866 29.8149L221.638 29.9152C221.581 29.3755 221.386 28.9617 221.052 28.6739C220.717 28.3861 220.224 28.2422 219.571 28.2422C218.928 28.2422 218.468 28.3552 218.191 28.5814C217.918 28.8075 217.782 29.0928 217.782 29.4372C217.782 29.761 217.908 30.0282 218.16 30.239C218.412 30.4549 218.97 30.7504 219.833 31.1256C221.134 31.6858 221.962 32.1407 222.317 32.4902C222.846 33.0042 223.11 33.6646 223.11 34.4716C223.11 35.4687 222.715 36.3219 221.923 37.0312C221.136 37.7354 220.039 38.0874 218.631 38.0874C217.659 38.0874 216.815 37.9255 216.101 37.6017C215.391 37.2728 214.89 36.8179 214.598 36.2371C214.304 35.6563 214.168 34.9881 214.188 34.2326ZM229.118 34.2326L231.331 34.117C231.362 34.8211 231.483 35.2965 231.693 35.5432C232.033 35.9441 232.66 36.1446 233.575 36.1446C234.336 36.1446 234.886 36.0084 235.225 35.736C235.565 35.4636 235.734 35.1346 235.734 34.7491C235.734 34.4151 235.595 34.1324 235.318 33.9011C235.123 33.7314 234.585 33.4565 233.706 33.0761C232.832 32.6958 232.192 32.3797 231.786 32.1279C231.385 31.8709 231.069 31.5393 230.837 31.1333C230.606 30.7272 230.491 30.2518 230.491 29.707C230.491 28.7561 230.835 27.9672 231.524 27.3401C232.212 26.7131 233.21 26.3995 234.516 26.3995C235.842 26.3995 236.868 26.7105 237.593 27.3324C238.323 27.9543 238.724 28.7818 238.796 29.8149L236.567 29.9152C236.51 29.3755 236.315 28.9617 235.981 28.6739C235.647 28.3861 235.153 28.2422 234.5 28.2422C233.858 28.2422 233.397 28.3552 233.12 28.5814C232.847 28.8075 232.712 29.0928 232.712 29.4372C232.712 29.761 232.837 30.0282 233.089 30.239C233.341 30.4549 233.899 30.7504 234.763 31.1256C236.063 31.6858 236.891 32.1407 237.246 32.4902C237.775 33.0042 238.04 33.6646 238.04 34.4716C238.04 35.4687 237.644 36.3219 236.852 37.0312C236.066 37.7354 234.968 38.0874 233.56 38.0874C232.588 38.0874 231.745 37.9255 231.03 37.6017C230.321 37.2728 229.82 36.8179 229.527 36.2371C229.233 35.6563 229.097 34.9881 229.118 34.2326Z" fill="white"/>
<path d="M177.822 33.824L180.166 34.1786C179.708 35.4482 179.022 36.4196 178.107 37.0929C177.192 37.7611 176.12 38.0952 174.891 38.0952C173.509 38.0952 172.426 37.6788 171.645 36.8462C170.868 36.0135 170.48 34.8057 170.48 33.2226C170.48 31.9376 170.74 30.7632 171.259 29.6993C171.783 28.6302 172.508 27.813 173.434 27.2476C174.359 26.6822 175.367 26.3995 176.457 26.3995C177.68 26.3995 178.67 26.7285 179.426 27.3864C180.182 28.0391 180.626 28.9309 180.76 30.0616L178.531 30.2775C178.407 29.6196 178.168 29.1442 177.814 28.8512C177.464 28.5531 176.997 28.4041 176.41 28.4041C175.768 28.4041 175.166 28.5994 174.606 28.99C174.051 29.3806 173.606 29.9923 173.272 30.8249C172.938 31.6524 172.77 32.4799 172.77 33.3074C172.77 34.212 172.987 34.9111 173.418 35.4045C173.855 35.8979 174.398 36.1446 175.046 36.1446C175.647 36.1446 176.197 35.9493 176.696 35.5586C177.199 35.168 177.575 34.5898 177.822 33.824ZM185.502 37.8947L187.87 26.5923H190.191L188.224 36.0058H193.977L193.584 37.8947H185.502ZM206.015 35.3967H201.534L200.177 37.8947H197.786L204.179 26.5923H206.763L208.598 37.8947H206.393L206.015 35.3967ZM205.729 33.5156L205.074 28.9669L202.344 33.5156H205.729ZM214.188 34.2326L216.402 34.117C216.433 34.8211 216.553 35.2965 216.764 35.5432C217.103 35.9441 217.731 36.1446 218.646 36.1446C219.406 36.1446 219.957 36.0084 220.296 35.736C220.635 35.4636 220.805 35.1346 220.805 34.7491C220.805 34.4151 220.666 34.1324 220.388 33.9011C220.193 33.7314 219.656 33.4565 218.777 33.0761C217.903 32.6958 217.263 32.3797 216.857 32.1279C216.456 31.8709 216.139 31.5393 215.908 31.1333C215.677 30.7272 215.561 30.2518 215.561 29.707C215.561 28.7561 215.906 27.9672 216.594 27.3401C217.283 26.7131 218.281 26.3995 219.587 26.3995C220.913 26.3995 221.939 26.7105 222.664 27.3324C223.393 27.9543 223.794 28.7818 223.866 29.8149L221.638 29.9152C221.581 29.3755 221.386 28.9617 221.052 28.6739C220.717 28.3861 220.224 28.2422 219.571 28.2422C218.928 28.2422 218.468 28.3552 218.191 28.5814C217.918 28.8075 217.782 29.0928 217.782 29.4372C217.782 29.761 217.908 30.0282 218.16 30.239C218.412 30.4549 218.97 30.7504 219.833 31.1256C221.134 31.6858 221.962 32.1407 222.317 32.4902C222.846 33.0042 223.11 33.6646 223.11 34.4716C223.11 35.4687 222.715 36.3219 221.923 37.0312C221.136 37.7354 220.039 38.0874 218.631 38.0874C217.659 38.0874 216.815 37.9255 216.101 37.6017C215.391 37.2728 214.89 36.8179 214.598 36.2371C214.304 35.6563 214.168 34.9881 214.188 34.2326ZM229.118 34.2326L231.331 34.117C231.362 34.8211 231.483 35.2965 231.693 35.5432C232.033 35.9441 232.66 36.1446 233.575 36.1446C234.336 36.1446 234.886 36.0084 235.225 35.736C235.565 35.4636 235.734 35.1346 235.734 34.7491C235.734 34.4151 235.595 34.1324 235.318 33.9011C235.123 33.7314 234.585 33.4565 233.706 33.0761C232.832 32.6958 232.192 32.3797 231.786 32.1279C231.385 31.8709 231.069 31.5393 230.837 31.1333C230.606 30.7272 230.491 30.2518 230.491 29.707C230.491 28.7561 230.835 27.9672 231.524 27.3401C232.212 26.7131 233.21 26.3995 234.516 26.3995C235.842 26.3995 236.868 26.7105 237.593 27.3324C238.323 27.9543 238.724 28.7818 238.796 29.8149L236.567 29.9152C236.51 29.3755 236.315 28.9617 235.981 28.6739C235.647 28.3861 235.153 28.2422 234.5 28.2422C233.858 28.2422 233.397 28.3552 233.12 28.5814C232.847 28.8075 232.712 29.0928 232.712 29.4372C232.712 29.761 232.837 30.0282 233.089 30.239C233.341 30.4549 233.899 30.7504 234.763 31.1256C236.063 31.6858 236.891 32.1407 237.246 32.4902C237.775 33.0042 238.04 33.6646 238.04 34.4716C238.04 35.4687 237.644 36.3219 236.852 37.0312C236.066 37.7354 234.968 38.0874 233.56 38.0874C232.588 38.0874 231.745 37.9255 231.03 37.6017C230.321 37.2728 229.82 36.8179 229.527 36.2371C229.233 35.6563 229.097 34.9881 229.118 34.2326Z" fill="white"/>
</svg>
