<svg width="223" height="64" viewBox="0 0 223 64" fill="none" xmlns="http://www.w3.org/2000/svg">
<g clip-path="url(#clip0_179_18)">
<path d="M106.297 63.9118C124.312 63.9118 138.916 49.6047 138.916 31.9559C138.916 14.3072 124.312 0 106.297 0C88.2823 0 73.6782 14.3072 73.6782 31.9559C73.6782 49.6047 88.2823 63.9118 106.297 63.9118Z" fill="#D10363"/>
<path d="M107.255 50.5316L112.524 45.3558L105.001 38.0048L104.28 24.4282L116.544 25.1478L116.129 17.5014L95.749 16.092L97.2501 40.7555L107.255 50.5316Z" fill="white"/>
<path d="M115.012 35.4397L115.174 29.0266L108.628 28.8679L108.466 35.281L115.012 35.4397Z" fill="white"/>
<path d="M0.935482 31.2984L3.00049 31.1926C3.02927 31.8365 3.14199 32.2711 3.33866 32.4967C3.65525 32.8632 4.24045 33.0465 5.09428 33.0465C5.8042 33.0465 6.31744 32.9219 6.63406 32.6729C6.95064 32.4239 7.10895 32.1231 7.10895 31.7706C7.10895 31.4652 6.97942 31.2067 6.72037 30.9953C6.53809 30.8402 6.03683 30.5888 5.21659 30.241C4.40115 29.8933 3.80395 29.6043 3.42501 29.374C3.05086 29.1391 2.75585 28.836 2.54 28.4647C2.32415 28.0935 2.21622 27.6588 2.21622 27.1607C2.21622 26.2913 2.5376 25.57 3.18037 24.9967C3.82313 24.4234 4.75371 24.1367 5.97209 24.1367C7.20964 24.1367 8.16662 24.421 8.84294 24.9896C9.52408 25.5582 9.89826 26.3148 9.96541 27.2593L7.88601 27.351C7.83325 26.8576 7.65097 26.4793 7.33917 26.2161C7.02736 25.953 6.56687 25.8214 5.9577 25.8214C5.3581 25.8214 4.9288 25.9248 4.66977 26.1315C4.41554 26.3383 4.28842 26.5991 4.28842 26.914C4.28842 27.21 4.40595 27.4544 4.64099 27.647C4.87603 27.8444 5.39646 28.1146 6.20236 28.4577C7.41594 28.9699 8.18819 29.3858 8.5192 29.7053C9.01324 30.1752 9.26026 30.7791 9.26026 31.5169C9.26026 32.4285 8.89093 33.2086 8.15223 33.8571C7.4183 34.5009 6.39422 34.8228 5.07989 34.8228C4.1733 34.8228 3.38663 34.6748 2.71988 34.3787C2.05792 34.078 1.59024 33.6621 1.31682 33.1311C1.04341 32.6001 0.916291 31.9891 0.935482 31.2984ZM31.017 30.9248L33.2043 31.249C32.7774 32.4098 32.1371 33.2979 31.2832 33.9135C30.4294 34.5244 29.4293 34.8299 28.2828 34.8299C26.9925 34.8299 25.9828 34.4492 25.2537 33.6879C24.5294 32.9267 24.1672 31.8224 24.1672 30.3749C24.1672 29.2001 24.4094 28.1264 24.8939 27.1536C25.3832 26.1762 26.0595 25.429 26.9229 24.9121C27.7864 24.3952 28.7265 24.1367 29.7434 24.1367C30.8851 24.1367 31.8085 24.4375 32.5136 25.039C33.2187 25.6358 33.6336 26.4511 33.7583 27.4849L31.6789 27.6823C31.5638 27.0808 31.3408 26.6461 31.0098 26.3783C30.6836 26.1057 30.2471 25.9694 29.7003 25.9694C29.1007 25.9694 28.5394 26.148 28.0166 26.5052C27.4986 26.8623 27.0837 27.4215 26.7718 28.1828C26.46 28.9393 26.3042 29.6959 26.3042 30.4525C26.3042 31.2796 26.5056 31.9187 26.9085 32.3698C27.3163 32.8209 27.8224 33.0465 28.4267 33.0465C28.9879 33.0465 29.5012 32.8679 29.9665 32.5108C30.4366 32.1536 30.7867 31.625 31.017 30.9248ZM46.8737 34.6466L49.0826 24.3129H51.2484L49.0466 34.6466H46.8737Z" fill="white"/>
<path d="M0.935482 31.2984L3.00049 31.1926C3.02927 31.8365 3.14199 32.2711 3.33866 32.4967C3.65525 32.8632 4.24045 33.0465 5.09428 33.0465C5.8042 33.0465 6.31744 32.9219 6.63406 32.6729C6.95064 32.4239 7.10895 32.1231 7.10895 31.7706C7.10895 31.4652 6.97942 31.2067 6.72037 30.9953C6.53809 30.8402 6.03683 30.5888 5.21659 30.241C4.40115 29.8933 3.80395 29.6043 3.42501 29.374C3.05086 29.1391 2.75585 28.836 2.54 28.4647C2.32415 28.0935 2.21622 27.6588 2.21622 27.1607C2.21622 26.2913 2.5376 25.57 3.18037 24.9967C3.82313 24.4234 4.75371 24.1367 5.97209 24.1367C7.20964 24.1367 8.16662 24.421 8.84294 24.9896C9.52408 25.5582 9.89826 26.3148 9.96541 27.2593L7.88601 27.351C7.83325 26.8576 7.65097 26.4793 7.33917 26.2161C7.02736 25.953 6.56687 25.8214 5.9577 25.8214C5.3581 25.8214 4.9288 25.9248 4.66977 26.1315C4.41554 26.3383 4.28842 26.5991 4.28842 26.914C4.28842 27.21 4.40595 27.4544 4.64099 27.647C4.87603 27.8444 5.39646 28.1146 6.20236 28.4577C7.41594 28.9699 8.18819 29.3858 8.5192 29.7053C9.01324 30.1752 9.26026 30.7791 9.26026 31.5169C9.26026 32.4285 8.89093 33.2086 8.15223 33.8571C7.4183 34.5009 6.39422 34.8228 5.07989 34.8228C4.1733 34.8228 3.38663 34.6748 2.71988 34.3787C2.05792 34.078 1.59024 33.6621 1.31682 33.1311C1.04341 32.6001 0.916291 31.9891 0.935482 31.2984ZM31.017 30.9248L33.2043 31.249C32.7774 32.4098 32.1371 33.2979 31.2832 33.9135C30.4294 34.5244 29.4293 34.8299 28.2828 34.8299C26.9925 34.8299 25.9828 34.4492 25.2537 33.6879C24.5294 32.9267 24.1672 31.8224 24.1672 30.3749C24.1672 29.2001 24.4094 28.1264 24.8939 27.1536C25.3832 26.1762 26.0595 25.429 26.9229 24.9121C27.7864 24.3952 28.7265 24.1367 29.7434 24.1367C30.8851 24.1367 31.8085 24.4375 32.5136 25.039C33.2187 25.6358 33.6336 26.4511 33.7583 27.4849L31.6789 27.6823C31.5638 27.0808 31.3408 26.6461 31.0098 26.3783C30.6836 26.1057 30.2471 25.9694 29.7003 25.9694C29.1007 25.9694 28.5394 26.148 28.0166 26.5052C27.4986 26.8623 27.0837 27.4215 26.7718 28.1828C26.46 28.9393 26.3042 29.6959 26.3042 30.4525C26.3042 31.2796 26.5056 31.9187 26.9085 32.3698C27.3163 32.8209 27.8224 33.0465 28.4267 33.0465C28.9879 33.0465 29.5012 32.8679 29.9665 32.5108C30.4366 32.1536 30.7867 31.625 31.017 30.9248ZM46.8737 34.6466L49.0826 24.3129H51.2484L49.0466 34.6466H46.8737Z" fill="white"/>
<path d="M165.917 30.9248L168.105 31.249C167.678 32.4098 167.037 33.2979 166.184 33.9135C165.33 34.5244 164.33 34.8299 163.184 34.8299C161.893 34.8299 160.883 34.4492 160.154 33.6879C159.43 32.9267 159.068 31.8224 159.068 30.3749C159.068 29.2001 159.31 28.1264 159.794 27.1536C160.284 26.1762 160.96 25.429 161.823 24.9121C162.687 24.3952 163.627 24.1367 164.644 24.1367C165.786 24.1367 166.709 24.4375 167.414 25.039C168.12 25.6358 168.534 26.4511 168.659 27.4849L166.58 27.6823C166.464 27.0808 166.241 26.6461 165.91 26.3783C165.584 26.1057 165.148 25.9694 164.601 25.9694C164.001 25.9694 163.44 26.148 162.917 26.5052C162.399 26.8623 161.984 27.4215 161.673 28.1828C161.361 28.9393 161.205 29.6959 161.205 30.4525C161.205 31.2796 161.406 31.9187 161.809 32.3698C162.217 32.8209 162.723 33.0465 163.327 33.0465C163.888 33.0465 164.402 32.8679 164.867 32.5108C165.337 32.1536 165.687 31.625 165.917 30.9248ZM173.084 34.6466L175.293 24.3129H177.458L175.624 32.9196H180.992L180.625 34.6466H173.084ZM192.223 32.3627H188.043L186.776 34.6466H184.546L190.51 24.3129H192.921L194.633 34.6466H192.576L192.223 32.3627ZM191.957 30.6428L191.345 26.484L188.798 30.6428H191.957ZM199.85 31.2984L201.915 31.1926C201.944 31.8365 202.056 32.2711 202.253 32.4967C202.57 32.8632 203.155 33.0465 204.009 33.0465C204.719 33.0465 205.232 32.9219 205.549 32.6729C205.865 32.4239 206.024 32.1231 206.024 31.7706C206.024 31.4652 205.894 31.2067 205.635 30.9953C205.452 30.8402 204.951 30.5888 204.131 30.241C203.316 29.8933 202.718 29.6043 202.34 29.374C201.965 29.1391 201.67 28.836 201.455 28.4647C201.238 28.0935 201.131 27.6588 201.131 27.1607C201.131 26.2913 201.452 25.57 202.095 24.9967C202.738 24.4234 203.668 24.1367 204.887 24.1367C206.124 24.1367 207.081 24.421 207.758 24.9896C208.438 25.5582 208.813 26.3148 208.88 27.2593L206.801 27.351C206.748 26.8576 206.565 26.4793 206.253 26.2161C205.942 25.953 205.481 25.8214 204.872 25.8214C204.273 25.8214 203.843 25.9248 203.584 26.1315C203.33 26.3383 203.203 26.5991 203.203 26.914C203.203 27.21 203.321 27.4544 203.555 27.647C203.791 27.8444 204.311 28.1146 205.117 28.4577C206.33 28.9699 207.103 29.3858 207.434 29.7053C207.927 30.1752 208.175 30.7791 208.175 31.5169C208.175 32.4285 207.805 33.2086 207.067 33.8571C206.333 34.5009 205.308 34.8228 203.995 34.8228C203.088 34.8228 202.301 34.6748 201.634 34.3787C200.972 34.078 200.505 33.6621 200.232 33.1311C199.958 32.6001 199.831 31.9891 199.85 31.2984ZM213.78 31.2984L215.845 31.1926C215.873 31.8365 215.986 32.2711 216.183 32.4967C216.5 32.8632 217.085 33.0465 217.938 33.0465C218.649 33.0465 219.162 32.9219 219.478 32.6729C219.795 32.4239 219.953 32.1231 219.953 31.7706C219.953 31.4652 219.824 31.2067 219.565 30.9953C219.382 30.8402 218.881 30.5888 218.061 30.241C217.245 29.8933 216.648 29.6043 216.269 29.374C215.895 29.1391 215.6 28.836 215.384 28.4647C215.169 28.0935 215.061 27.6588 215.061 27.1607C215.061 26.2913 215.382 25.57 216.025 24.9967C216.667 24.4234 217.598 24.1367 218.816 24.1367C220.054 24.1367 221.011 24.421 221.687 24.9896C222.368 25.5582 222.743 26.3148 222.81 27.2593L220.73 27.351C220.677 26.8576 220.495 26.4793 220.184 26.2161C219.872 25.953 219.411 25.8214 218.802 25.8214C218.202 25.8214 217.773 25.9248 217.514 26.1315C217.26 26.3383 217.133 26.5991 217.133 26.914C217.133 27.21 217.25 27.4544 217.485 27.647C217.72 27.8444 218.241 28.1146 219.047 28.4577C220.26 28.9699 221.032 29.3858 221.363 29.7053C221.858 30.1752 222.105 30.7791 222.105 31.5169C222.105 32.4285 221.735 33.2086 220.997 33.8571C220.263 34.5009 219.239 34.8228 217.924 34.8228C217.017 34.8228 216.231 34.6748 215.564 34.3787C214.902 34.078 214.435 33.6621 214.161 33.1311C213.888 32.6001 213.76 31.9891 213.78 31.2984Z" fill="white"/>
<path d="M165.917 30.9248L168.105 31.249C167.678 32.4098 167.037 33.2979 166.184 33.9135C165.33 34.5244 164.33 34.8299 163.184 34.8299C161.893 34.8299 160.883 34.4492 160.154 33.6879C159.43 32.9267 159.068 31.8224 159.068 30.3749C159.068 29.2001 159.31 28.1264 159.794 27.1536C160.284 26.1762 160.96 25.429 161.823 24.9121C162.687 24.3952 163.627 24.1367 164.644 24.1367C165.786 24.1367 166.709 24.4375 167.414 25.039C168.12 25.6358 168.534 26.4511 168.659 27.4849L166.58 27.6823C166.464 27.0808 166.241 26.6461 165.91 26.3783C165.584 26.1057 165.148 25.9694 164.601 25.9694C164.001 25.9694 163.44 26.148 162.917 26.5052C162.399 26.8623 161.984 27.4215 161.673 28.1828C161.361 28.9393 161.205 29.6959 161.205 30.4525C161.205 31.2796 161.406 31.9187 161.809 32.3698C162.217 32.8209 162.723 33.0465 163.327 33.0465C163.888 33.0465 164.402 32.8679 164.867 32.5108C165.337 32.1536 165.687 31.625 165.917 30.9248ZM173.084 34.6466L175.293 24.3129H177.458L175.624 32.9196H180.992L180.625 34.6466H173.084ZM192.223 32.3627H188.043L186.776 34.6466H184.546L190.51 24.3129H192.921L194.633 34.6466H192.576L192.223 32.3627ZM191.957 30.6428L191.345 26.484L188.798 30.6428H191.957ZM199.85 31.2984L201.915 31.1926C201.944 31.8365 202.056 32.2711 202.253 32.4967C202.57 32.8632 203.155 33.0465 204.009 33.0465C204.719 33.0465 205.232 32.9219 205.549 32.6729C205.865 32.4239 206.024 32.1231 206.024 31.7706C206.024 31.4652 205.894 31.2067 205.635 30.9953C205.452 30.8402 204.951 30.5888 204.131 30.241C203.316 29.8933 202.718 29.6043 202.34 29.374C201.965 29.1391 201.67 28.836 201.455 28.4647C201.238 28.0935 201.131 27.6588 201.131 27.1607C201.131 26.2913 201.452 25.57 202.095 24.9967C202.738 24.4234 203.668 24.1367 204.887 24.1367C206.124 24.1367 207.081 24.421 207.758 24.9896C208.438 25.5582 208.813 26.3148 208.88 27.2593L206.801 27.351C206.748 26.8576 206.565 26.4793 206.253 26.2161C205.942 25.953 205.481 25.8214 204.872 25.8214C204.273 25.8214 203.843 25.9248 203.584 26.1315C203.33 26.3383 203.203 26.5991 203.203 26.914C203.203 27.21 203.321 27.4544 203.555 27.647C203.791 27.8444 204.311 28.1146 205.117 28.4577C206.33 28.9699 207.103 29.3858 207.434 29.7053C207.927 30.1752 208.175 30.7791 208.175 31.5169C208.175 32.4285 207.805 33.2086 207.067 33.8571C206.333 34.5009 205.308 34.8228 203.995 34.8228C203.088 34.8228 202.301 34.6748 201.634 34.3787C200.972 34.078 200.505 33.6621 200.232 33.1311C199.958 32.6001 199.831 31.9891 199.85 31.2984ZM213.78 31.2984L215.845 31.1926C215.873 31.8365 215.986 32.2711 216.183 32.4967C216.5 32.8632 217.085 33.0465 217.938 33.0465C218.649 33.0465 219.162 32.9219 219.478 32.6729C219.795 32.4239 219.953 32.1231 219.953 31.7706C219.953 31.4652 219.824 31.2067 219.565 30.9953C219.382 30.8402 218.881 30.5888 218.061 30.241C217.245 29.8933 216.648 29.6043 216.269 29.374C215.895 29.1391 215.6 28.836 215.384 28.4647C215.169 28.0935 215.061 27.6588 215.061 27.1607C215.061 26.2913 215.382 25.57 216.025 24.9967C216.667 24.4234 217.598 24.1367 218.816 24.1367C220.054 24.1367 221.011 24.421 221.687 24.9896C222.368 25.5582 222.743 26.3148 222.81 27.2593L220.73 27.351C220.677 26.8576 220.495 26.4793 220.184 26.2161C219.872 25.953 219.411 25.8214 218.802 25.8214C218.202 25.8214 217.773 25.9248 217.514 26.1315C217.26 26.3383 217.133 26.5991 217.133 26.914C217.133 27.21 217.25 27.4544 217.485 27.647C217.72 27.8444 218.241 28.1146 219.047 28.4577C220.26 28.9699 221.032 29.3858 221.363 29.7053C221.858 30.1752 222.105 30.7791 222.105 31.5169C222.105 32.4285 221.735 33.2086 220.997 33.8571C220.263 34.5009 219.239 34.8228 217.924 34.8228C217.017 34.8228 216.231 34.6748 215.564 34.3787C214.902 34.078 214.435 33.6621 214.161 33.1311C213.888 32.6001 213.76 31.9891 213.78 31.2984Z" fill="white"/>
</g>
<defs>
<clipPath id="clip0_179_18">
<rect width="223" height="64" fill="white"/>
</clipPath>
</defs>
</svg>
