<svg width="402" height="242" viewBox="0 0 402 242" fill="none" xmlns="http://www.w3.org/2000/svg">
<circle cx="187.702" cy="79.7023" r="79.7023" fill="#D10363"/>
<mask id="mask0_30_1128" style="mask-type:alpha" maskUnits="userSpaceOnUse" x="108" y="0" width="160" height="160">
<circle cx="187.702" cy="79.7023" r="79.7023" fill="#D10363"/>
</mask>
<g mask="url(#mask0_30_1128)">
<path d="M190.042 126.032L202.917 113.123L184.535 94.789L182.774 60.9273L212.739 62.7218L211.724 43.651L161.928 40.1357L165.595 101.65L190.042 126.032Z" fill="white"/>
</g>
<circle cx="187.702" cy="79.7023" r="79.7023" fill="#D10363"/>
<mask id="mask1_30_1128" style="mask-type:alpha" maskUnits="userSpaceOnUse" x="108" y="0" width="160" height="160">
<circle cx="187.702" cy="79.7023" r="79.7023" fill="#D10363"/>
</mask>
<g mask="url(#mask1_30_1128)">
<path d="M190.042 126.032L202.917 113.123L184.535 94.789L182.774 60.9273L212.739 62.7218L211.724 43.651L161.928 40.1357L165.595 101.65L190.042 126.032Z" fill="white"/>
</g>
<rect x="209.391" y="72.396" width="16" height="16" transform="rotate(91.418 209.391 72.396)" fill="white"/>
<path d="M2.53906 223.723L8.14453 223.43C8.22266 225.214 8.52865 226.418 9.0625 227.043C9.92188 228.059 11.5104 228.566 13.8281 228.566C15.7552 228.566 17.1484 228.221 18.0078 227.531C18.8672 226.841 19.2969 226.008 19.2969 225.031C19.2969 224.185 18.9453 223.469 18.2422 222.883C17.7474 222.453 16.3867 221.757 14.1602 220.793C11.9466 219.829 10.3255 219.029 9.29688 218.391C8.28125 217.74 7.48047 216.9 6.89453 215.871C6.30859 214.842 6.01562 213.638 6.01562 212.258C6.01562 209.849 6.88802 207.85 8.63281 206.262C10.3776 204.673 12.9036 203.879 16.2109 203.879C19.5703 203.879 22.168 204.667 24.0039 206.242C25.8529 207.818 26.8685 209.914 27.0508 212.531L21.4062 212.785C21.263 211.418 20.7682 210.37 19.9219 209.641C19.0755 208.911 17.8255 208.547 16.1719 208.547C14.5443 208.547 13.3789 208.833 12.6758 209.406C11.9857 209.979 11.6406 210.702 11.6406 211.574C11.6406 212.395 11.9596 213.072 12.5977 213.605C13.2357 214.152 14.6484 214.901 16.8359 215.852C20.1302 217.271 22.2266 218.423 23.125 219.309C24.4661 220.611 25.1367 222.284 25.1367 224.328C25.1367 226.854 24.1341 229.016 22.1289 230.812C20.1367 232.596 17.3568 233.488 13.7891 233.488C11.3281 233.488 9.19271 233.078 7.38281 232.258C5.58594 231.424 4.31641 230.272 3.57422 228.801C2.83203 227.329 2.48698 225.637 2.53906 223.723ZM82.4609 222.688L88.3984 223.586C87.2396 226.802 85.5013 229.263 83.1836 230.969C80.8659 232.661 78.151 233.508 75.0391 233.508C71.5365 233.508 68.7956 232.453 66.8164 230.344C64.8503 228.234 63.8672 225.174 63.8672 221.164C63.8672 217.909 64.5247 214.934 65.8398 212.238C67.168 209.53 69.0039 207.46 71.3477 206.027C73.6914 204.595 76.2435 203.879 79.0039 203.879C82.1029 203.879 84.6094 204.712 86.5234 206.379C88.4375 208.033 89.5638 210.292 89.9023 213.156L84.2578 213.703C83.9453 212.036 83.3398 210.832 82.4414 210.09C81.556 209.335 80.3711 208.957 78.8867 208.957C77.2591 208.957 75.7357 209.452 74.3164 210.441C72.9102 211.431 71.7839 212.98 70.9375 215.09C70.0911 217.186 69.668 219.283 69.668 221.379C69.668 223.671 70.2148 225.441 71.3086 226.691C72.4154 227.941 73.7891 228.566 75.4297 228.566C76.9531 228.566 78.3464 228.072 79.6094 227.082C80.8854 226.092 81.8359 224.628 82.4609 222.688ZM134.902 233L140.898 204.367H146.777L140.801 233H134.902ZM180.293 225.363V219.875H191.074V225.363H180.293ZM234.863 222.473L240.469 224.25C239.609 227.375 238.177 229.699 236.172 231.223C234.18 232.733 231.647 233.488 228.574 233.488C224.772 233.488 221.647 232.193 219.199 229.602C216.751 226.997 215.527 223.443 215.527 218.938C215.527 214.172 216.758 210.474 219.219 207.844C221.68 205.201 224.915 203.879 228.926 203.879C232.428 203.879 235.273 204.914 237.461 206.984C238.763 208.208 239.74 209.966 240.391 212.258L234.668 213.625C234.329 212.141 233.62 210.969 232.539 210.109C231.471 209.25 230.169 208.82 228.633 208.82C226.51 208.82 224.785 209.582 223.457 211.105C222.142 212.629 221.484 215.096 221.484 218.508C221.484 222.128 222.135 224.706 223.438 226.242C224.74 227.779 226.432 228.547 228.516 228.547C230.052 228.547 231.374 228.059 232.48 227.082C233.587 226.105 234.382 224.569 234.863 222.473ZM267.871 233V204.602H273.652V228.176H288.027V233H267.871ZM326.895 233H320.605L318.105 226.496H306.66L304.297 233H298.164L309.316 204.367H315.43L326.895 233ZM316.25 221.672L312.305 211.047L308.438 221.672H316.25ZM338.164 223.684L343.789 223.137C344.128 225.025 344.811 226.411 345.84 227.297C346.882 228.182 348.281 228.625 350.039 228.625C351.901 228.625 353.301 228.234 354.238 227.453C355.189 226.659 355.664 225.734 355.664 224.68C355.664 224.003 355.462 223.43 355.059 222.961C354.668 222.479 353.978 222.062 352.988 221.711C352.311 221.477 350.768 221.06 348.359 220.461C345.26 219.693 343.086 218.749 341.836 217.629C340.078 216.053 339.199 214.133 339.199 211.867C339.199 210.409 339.609 209.048 340.43 207.785C341.263 206.509 342.454 205.539 344.004 204.875C345.566 204.211 347.448 203.879 349.648 203.879C353.242 203.879 355.944 204.667 357.754 206.242C359.577 207.818 360.534 209.921 360.625 212.551L354.844 212.805C354.596 211.333 354.062 210.279 353.242 209.641C352.435 208.99 351.217 208.664 349.59 208.664C347.91 208.664 346.595 209.009 345.645 209.699C345.033 210.142 344.727 210.734 344.727 211.477C344.727 212.154 345.013 212.733 345.586 213.215C346.315 213.827 348.086 214.465 350.898 215.129C353.711 215.793 355.788 216.483 357.129 217.199C358.483 217.902 359.538 218.872 360.293 220.109C361.061 221.333 361.445 222.85 361.445 224.66C361.445 226.301 360.99 227.837 360.078 229.27C359.167 230.702 357.878 231.77 356.211 232.473C354.544 233.163 352.467 233.508 349.98 233.508C346.361 233.508 343.581 232.674 341.641 231.008C339.701 229.328 338.542 226.887 338.164 223.684ZM375.977 223.684L381.602 223.137C381.94 225.025 382.624 226.411 383.652 227.297C384.694 228.182 386.094 228.625 387.852 228.625C389.714 228.625 391.113 228.234 392.051 227.453C393.001 226.659 393.477 225.734 393.477 224.68C393.477 224.003 393.275 223.43 392.871 222.961C392.48 222.479 391.79 222.062 390.801 221.711C390.124 221.477 388.581 221.06 386.172 220.461C383.073 219.693 380.898 218.749 379.648 217.629C377.891 216.053 377.012 214.133 377.012 211.867C377.012 210.409 377.422 209.048 378.242 207.785C379.076 206.509 380.267 205.539 381.816 204.875C383.379 204.211 385.26 203.879 387.461 203.879C391.055 203.879 393.757 204.667 395.566 206.242C397.389 207.818 398.346 209.921 398.438 212.551L392.656 212.805C392.409 211.333 391.875 210.279 391.055 209.641C390.247 208.99 389.03 208.664 387.402 208.664C385.723 208.664 384.408 209.009 383.457 209.699C382.845 210.142 382.539 210.734 382.539 211.477C382.539 212.154 382.826 212.733 383.398 213.215C384.128 213.827 385.898 214.465 388.711 215.129C391.523 215.793 393.6 216.483 394.941 217.199C396.296 217.902 397.35 218.872 398.105 220.109C398.874 221.333 399.258 222.85 399.258 224.66C399.258 226.301 398.802 227.837 397.891 229.27C396.979 230.702 395.69 231.77 394.023 232.473C392.357 233.163 390.28 233.508 387.793 233.508C384.173 233.508 381.393 232.674 379.453 231.008C377.513 229.328 376.354 226.887 375.977 223.684Z" fill="#D10363"/>
</svg>
