<svg width="262" height="21" viewBox="0 0 262 21" fill="none" xmlns="http://www.w3.org/2000/svg">
<path d="M0.00354109 14.1269L3.87677 13.9306C3.93075 15.1262 4.14218 15.9335 4.51107 16.3523C5.10487 17.033 6.20251 17.3734 7.80399 17.3734C9.13554 17.3734 10.0982 17.1421 10.6921 16.6796C11.2859 16.2171 11.5828 15.6586 11.5828 15.004C11.5828 14.4368 11.3398 13.9568 10.854 13.564C10.5121 13.276 9.57187 12.8092 8.03339 12.1633C6.50391 11.5176 5.38378 10.9808 4.67301 10.5532C3.97124 10.1169 3.41792 9.55394 3.01305 8.86449C2.60819 8.17504 2.40575 7.36781 2.40575 6.44279C2.40575 4.82823 3.00856 3.48865 4.21416 2.42395C5.41976 1.35925 7.16519 0.826904 9.45044 0.826904C11.7717 0.826904 13.5666 1.35487 14.8352 2.41081C16.1127 3.46684 16.8146 4.87184 16.9405 6.62598L13.0403 6.79623C12.9413 5.87988 12.5994 5.17729 12.0146 4.68864C11.4298 4.1999 10.566 3.95558 9.42345 3.95558C8.29882 3.95558 7.49361 4.14753 7.00775 4.53153C6.5309 4.91554 6.29248 5.39989 6.29248 5.98461C6.29248 6.53438 6.51291 6.98818 6.95376 7.346C7.39462 7.71258 8.37077 8.21436 9.88235 8.85144C12.1586 9.80264 13.6071 10.575 14.2279 11.1684C15.1546 12.0412 15.6179 13.1626 15.6179 14.5327C15.6179 16.2258 14.9252 17.6745 13.5396 18.8788C12.163 20.0744 10.2422 20.6722 7.777 20.6722C6.07655 20.6722 4.60103 20.3973 3.35044 19.8475C2.10885 19.289 1.23163 18.5166 0.7188 17.5305C0.205969 16.5443 -0.032454 15.4098 0.00354109 14.1269ZM56.4259 13.4331L60.5285 14.0353C59.7278 16.1909 58.5267 17.8403 56.9252 18.9836C55.3237 20.1181 53.4479 20.6853 51.2976 20.6853C48.8773 20.6853 46.9835 19.9784 45.6159 18.5646C44.2574 17.1509 43.5781 15.1 43.5781 12.412C43.5781 10.2303 44.0324 8.23617 44.9412 6.42965C45.8589 4.61447 47.1274 3.22681 48.7469 2.26685C50.3663 1.30689 52.1298 0.826904 54.0372 0.826904C56.1784 0.826904 57.9104 1.38544 59.233 2.5025C60.5555 3.61081 61.3337 5.12501 61.5677 7.04493L57.6674 7.41142C57.4516 6.29435 57.0332 5.48712 56.4123 4.98971C55.8006 4.48355 54.9818 4.23046 53.9562 4.23046C52.8315 4.23046 51.7789 4.5621 50.7982 5.22537C49.8265 5.88854 49.0483 6.92715 48.4635 8.3409C47.8786 9.7459 47.5863 11.151 47.5863 12.5561C47.5863 14.092 47.9641 15.2789 48.7199 16.1167C49.4846 16.9545 50.4339 17.3734 51.5674 17.3734C52.6201 17.3734 53.5828 17.0418 54.4555 16.3785C55.3372 15.7152 55.994 14.7335 56.4259 13.4331ZM86.1674 20.345L90.3106 1.15416H94.3728L90.2431 20.345H86.1674Z" fill="white"/>
<path d="M0.00354109 14.1269L3.87677 13.9306C3.93075 15.1262 4.14218 15.9335 4.51107 16.3523C5.10487 17.033 6.20251 17.3734 7.80399 17.3734C9.13554 17.3734 10.0982 17.1421 10.6921 16.6796C11.2859 16.2171 11.5828 15.6586 11.5828 15.004C11.5828 14.4368 11.3398 13.9568 10.854 13.564C10.5121 13.276 9.57187 12.8092 8.03339 12.1633C6.50391 11.5176 5.38378 10.9808 4.67301 10.5532C3.97124 10.1169 3.41792 9.55394 3.01305 8.86449C2.60819 8.17504 2.40575 7.36781 2.40575 6.44279C2.40575 4.82823 3.00856 3.48865 4.21416 2.42395C5.41976 1.35925 7.16519 0.826904 9.45044 0.826904C11.7717 0.826904 13.5666 1.35487 14.8352 2.41081C16.1127 3.46684 16.8146 4.87184 16.9405 6.62598L13.0403 6.79623C12.9413 5.87988 12.5994 5.17729 12.0146 4.68864C11.4298 4.1999 10.566 3.95558 9.42345 3.95558C8.29882 3.95558 7.49361 4.14753 7.00775 4.53153C6.5309 4.91554 6.29248 5.39989 6.29248 5.98461C6.29248 6.53438 6.51291 6.98818 6.95376 7.346C7.39462 7.71258 8.37077 8.21436 9.88235 8.85144C12.1586 9.80264 13.6071 10.575 14.2279 11.1684C15.1546 12.0412 15.6179 13.1626 15.6179 14.5327C15.6179 16.2258 14.9252 17.6745 13.5396 18.8788C12.163 20.0744 10.2422 20.6722 7.777 20.6722C6.07655 20.6722 4.60103 20.3973 3.35044 19.8475C2.10885 19.289 1.23163 18.5166 0.7188 17.5305C0.205969 16.5443 -0.032454 15.4098 0.00354109 14.1269ZM56.4259 13.4331L60.5285 14.0353C59.7278 16.1909 58.5267 17.8403 56.9252 18.9836C55.3237 20.1181 53.4479 20.6853 51.2976 20.6853C48.8773 20.6853 46.9835 19.9784 45.6159 18.5646C44.2574 17.1509 43.5781 15.1 43.5781 12.412C43.5781 10.2303 44.0324 8.23617 44.9412 6.42965C45.8589 4.61447 47.1274 3.22681 48.7469 2.26685C50.3663 1.30689 52.1298 0.826904 54.0372 0.826904C56.1784 0.826904 57.9104 1.38544 59.233 2.5025C60.5555 3.61081 61.3337 5.12501 61.5677 7.04493L57.6674 7.41142C57.4516 6.29435 57.0332 5.48712 56.4123 4.98971C55.8006 4.48355 54.9818 4.23046 53.9562 4.23046C52.8315 4.23046 51.7789 4.5621 50.7982 5.22537C49.8265 5.88854 49.0483 6.92715 48.4635 8.3409C47.8786 9.7459 47.5863 11.151 47.5863 12.5561C47.5863 14.092 47.9641 15.2789 48.7199 16.1167C49.4846 16.9545 50.4339 17.3734 51.5674 17.3734C52.6201 17.3734 53.5828 17.0418 54.4555 16.3785C55.3372 15.7152 55.994 14.7335 56.4259 13.4331ZM86.1674 20.345L90.3106 1.15416H94.3728L90.2431 20.345H86.1674Z" fill="white"/>
<path d="M155.385 13.4331L159.484 14.0353C158.684 16.1909 157.484 17.8403 155.884 18.9836C154.284 20.1181 152.41 20.6853 150.262 20.6853C147.843 20.6853 145.951 19.9784 144.585 18.5646C143.227 17.1509 142.549 15.1 142.549 12.412C142.549 10.2303 143.003 8.23617 143.91 6.42965C144.827 4.61447 146.095 3.22681 147.713 2.26685C149.331 1.30689 151.093 0.826904 152.998 0.826904C155.138 0.826904 156.868 1.38544 158.19 2.5025C159.511 3.61081 160.288 5.12501 160.522 7.04493L156.626 7.41142C156.409 6.29435 155.992 5.48712 155.371 4.98971C154.76 4.48355 153.943 4.23046 152.917 4.23046C151.794 4.23046 150.742 4.5621 149.763 5.22537C148.792 5.88854 148.014 6.92715 147.43 8.3409C146.846 9.7459 146.553 11.151 146.553 12.5561C146.553 14.092 146.931 15.2789 147.686 16.1167C148.45 16.9545 149.398 17.3734 150.531 17.3734C151.582 17.3734 152.544 17.0418 153.416 16.3785C154.297 15.7152 154.953 14.7335 155.385 13.4331ZM168.815 20.345L172.954 1.15416H177.013L173.575 17.1377H183.634L182.946 20.345H168.815ZM204.681 16.1036H196.847L194.474 20.345H190.294L201.472 1.15416H205.989L209.198 20.345H205.342L204.681 16.1036ZM204.182 12.9095L203.036 5.18605L198.263 12.9095H204.182ZM218.974 14.1269L222.843 13.9306C222.898 15.1262 223.108 15.9335 223.478 16.3523C224.07 17.033 225.168 17.3734 226.767 17.3734C228.097 17.3734 229.059 17.1421 229.653 16.6796C230.246 16.2171 230.543 15.6586 230.543 15.004C230.543 14.4368 230.3 13.9568 229.814 13.564C229.473 13.276 228.534 12.8092 226.997 12.1633C225.469 11.5176 224.349 10.9808 223.64 10.5532C222.938 10.1169 222.385 9.55394 221.981 8.86449C221.576 8.17504 221.374 7.36781 221.374 6.44279C221.374 4.82823 221.976 3.48865 223.18 2.42395C224.385 1.35925 226.129 0.826904 228.412 0.826904C230.732 0.826904 232.525 1.35487 233.792 2.41081C235.068 3.46684 235.77 4.87184 235.896 6.62598L231.999 6.79623C231.9 5.87988 231.558 5.17729 230.974 4.68864C230.389 4.1999 229.527 3.95558 228.386 3.95558C227.262 3.95558 226.457 4.14753 225.972 4.53153C225.495 4.91554 225.257 5.39989 225.257 5.98461C225.257 6.53438 225.478 6.98818 225.918 7.346C226.359 7.71258 227.333 8.21436 228.844 8.85144C231.118 9.80264 232.565 10.575 233.186 11.1684C234.111 12.0412 234.574 13.1626 234.574 14.5327C234.574 16.2258 233.882 17.6745 232.498 18.8788C231.122 20.0744 229.203 20.6722 226.741 20.6722C225.041 20.6722 223.567 20.3973 222.318 19.8475C221.077 19.289 220.201 18.5166 219.689 17.5305C219.176 16.5443 218.938 15.4098 218.974 14.1269ZM245.078 14.1269L248.948 13.9306C249.002 15.1262 249.213 15.9335 249.581 16.3523C250.175 17.033 251.271 17.3734 252.871 17.3734C254.202 17.3734 255.164 17.1421 255.757 16.6796C256.351 16.2171 256.647 15.6586 256.647 15.004C256.647 14.4368 256.404 13.9568 255.919 13.564C255.578 13.276 254.638 12.8092 253.1 12.1633C251.572 11.5176 250.453 10.9808 249.743 10.5532C249.042 10.1169 248.49 9.55394 248.085 8.86449C247.681 8.17504 247.478 7.36781 247.478 6.44279C247.478 4.82823 248.08 3.48865 249.285 2.42395C250.489 1.35925 252.233 0.826904 254.516 0.826904C256.836 0.826904 258.629 1.35487 259.896 2.41081C261.173 3.46684 261.875 4.87184 262 6.62598L258.103 6.79623C258.004 5.87988 257.662 5.17729 257.079 4.68864C256.494 4.1999 255.631 3.95558 254.489 3.95558C253.366 3.95558 252.561 4.14753 252.076 4.53153C251.599 4.91554 251.362 5.39989 251.362 5.98461C251.362 6.53438 251.582 6.98818 252.022 7.346C252.463 7.71258 253.438 8.21436 254.948 8.85144C257.222 9.80264 258.669 10.575 259.29 11.1684C260.216 12.0412 260.679 13.1626 260.679 14.5327C260.679 16.2258 259.987 17.6745 258.602 18.8788C257.227 20.0744 255.308 20.6722 252.845 20.6722C251.145 20.6722 249.672 20.3973 248.422 19.8475C247.182 19.289 246.305 18.5166 245.793 17.5305C245.28 16.5443 245.042 15.4098 245.078 14.1269Z" fill="white"/>
<path d="M155.385 13.4331L159.484 14.0353C158.684 16.1909 157.484 17.8403 155.884 18.9836C154.284 20.1181 152.41 20.6853 150.262 20.6853C147.843 20.6853 145.951 19.9784 144.585 18.5646C143.227 17.1509 142.549 15.1 142.549 12.412C142.549 10.2303 143.003 8.23616 143.91 6.42965C144.827 4.61447 146.095 3.22681 147.713 2.26685C149.331 1.30689 151.093 0.826904 152.998 0.826904C155.138 0.826904 156.868 1.38544 158.19 2.5025C159.511 3.61081 160.288 5.12501 160.522 7.04493L156.626 7.41142C156.409 6.29435 155.992 5.48712 155.371 4.98971C154.76 4.48355 153.943 4.23046 152.917 4.23046C151.794 4.23046 150.742 4.5621 149.763 5.22537C148.792 5.88854 148.014 6.92715 147.43 8.3409C146.846 9.7459 146.553 11.151 146.553 12.5561C146.553 14.092 146.931 15.2789 147.686 16.1167C148.45 16.9545 149.398 17.3734 150.531 17.3734C151.582 17.3734 152.544 17.0418 153.416 16.3785C154.297 15.7152 154.953 14.7335 155.385 13.4331ZM168.815 20.345L172.954 1.15416H177.013L173.575 17.1377H183.634L182.946 20.345H168.815ZM204.681 16.1036H196.847L194.474 20.345H190.294L201.472 1.15416H205.989L209.198 20.345H205.342L204.681 16.1036ZM204.182 12.9095L203.036 5.18605L198.263 12.9095H204.182ZM218.974 14.1269L222.843 13.9306C222.898 15.1262 223.108 15.9335 223.478 16.3523C224.07 17.033 225.168 17.3734 226.767 17.3734C228.097 17.3734 229.059 17.1421 229.653 16.6796C230.246 16.2171 230.543 15.6586 230.543 15.004C230.543 14.4368 230.3 13.9568 229.814 13.564C229.473 13.276 228.534 12.8092 226.997 12.1633C225.469 11.5176 224.349 10.9808 223.64 10.5532C222.938 10.1169 222.385 9.55394 221.981 8.86449C221.576 8.17504 221.374 7.36781 221.374 6.44279C221.374 4.82823 221.976 3.48865 223.18 2.42395C224.385 1.35925 226.129 0.826904 228.412 0.826904C230.732 0.826904 232.525 1.35487 233.792 2.41081C235.068 3.46684 235.77 4.87184 235.896 6.62598L231.999 6.79623C231.9 5.87988 231.558 5.17729 230.974 4.68864C230.389 4.1999 229.527 3.95558 228.386 3.95558C227.262 3.95558 226.457 4.14753 225.972 4.53153C225.495 4.91554 225.257 5.39989 225.257 5.98461C225.257 6.53438 225.478 6.98818 225.918 7.346C226.359 7.71258 227.333 8.21436 228.844 8.85144C231.118 9.80265 232.565 10.575 233.186 11.1684C234.111 12.0412 234.574 13.1626 234.574 14.5327C234.574 16.2258 233.882 17.6745 232.498 18.8788C231.122 20.0744 229.203 20.6722 226.741 20.6722C225.041 20.6722 223.567 20.3973 222.318 19.8475C221.077 19.289 220.201 18.5166 219.689 17.5305C219.176 16.5444 218.938 15.4098 218.974 14.1269ZM245.078 14.1269L248.948 13.9306C249.002 15.1262 249.213 15.9335 249.581 16.3523C250.175 17.033 251.271 17.3734 252.871 17.3734C254.202 17.3734 255.164 17.1421 255.757 16.6796C256.351 16.2171 256.647 15.6586 256.647 15.004C256.647 14.4368 256.404 13.9568 255.919 13.564C255.578 13.276 254.638 12.8092 253.1 12.1633C251.572 11.5176 250.453 10.9808 249.743 10.5532C249.042 10.1169 248.49 9.55394 248.085 8.86449C247.681 8.17504 247.478 7.36781 247.478 6.44279C247.478 4.82823 248.08 3.48865 249.285 2.42395C250.489 1.35925 252.233 0.826904 254.516 0.826904C256.836 0.826904 258.629 1.35487 259.896 2.41081C261.173 3.46684 261.875 4.87184 262 6.62598L258.103 6.79623C258.004 5.87988 257.662 5.17729 257.079 4.68864C256.494 4.1999 255.631 3.95558 254.489 3.95558C253.366 3.95558 252.561 4.14753 252.076 4.53153C251.599 4.91554 251.362 5.39989 251.362 5.98461C251.362 6.53438 251.582 6.98818 252.022 7.346C252.463 7.71258 253.438 8.21436 254.948 8.85144C257.222 9.80265 258.669 10.575 259.29 11.1684C260.216 12.0412 260.679 13.1626 260.679 14.5327C260.679 16.2258 259.987 17.6745 258.602 18.8788C257.227 20.0744 255.308 20.6722 252.845 20.6722C251.145 20.6722 249.672 20.3973 248.422 19.8475C247.182 19.289 246.306 18.5166 245.793 17.5305C245.28 16.5444 245.042 15.4098 245.078 14.1269Z" fill="white"/>
</svg>
